<?xml version="1.0" encoding="UTF-8"?>
<svg id="_02" data-name="02" xmlns="http://www.w3.org/2000/svg" viewBox="0 0 3214.44 661.79">
  <defs>
    <style>
      .cls-1 {
        fill: #99d420;
      }

      .cls-2 {
        fill: none;
      }

      .cls-3 {
        fill: #2646a2;
      }
    </style>
  </defs>
  <g id="_02-2" data-name="02">
    <g>
      <g>
        <g>
          <path class="cls-2" d="M1433.19,347.25c9.05,3.83,20.35,5.78,33.62,5.78,22.13,0,38.89-5.83,51.24-17.83,12.07-11.74,18.21-31.02,18.24-57.31-1.1-23.72-7.18-42.6-18.05-56.11-10.52-13.06-27.34-19.41-51.42-19.41-13.25,0-24.55,1.94-33.61,5.78-8.88,3.76-16.19,8.99-21.74,15.55-5.64,6.67-9.81,14.59-12.4,23.55-2.69,9.36-4.06,19.61-4.06,30.46s1.37,21.11,4.06,30.46c2.58,8.95,6.75,16.87,12.4,23.54,5.56,6.57,12.87,11.8,21.74,15.55Z"/>
          <polygon class="cls-1" points="793.33 432.45 946.55 57.37 852.14 57.37 752.57 322.34 653 57.37 558.59 57.37 711.81 432.45 793.33 432.45"/>
          <rect class="cls-1" x="969.57" y="122.95" width="87.04" height="309.51"/>
          <path class="cls-1" d="M1013.09,106.36c16.48,0,29.62-5.38,39.06-15.99,9.18-10.32,13.83-22.94,13.83-37.48s-4.65-26.57-13.83-36.9c-9.44-10.61-22.58-15.99-39.06-15.99s-29.6,5.23-39.22,15.55c-9.46,10.15-14.25,22.71-14.25,37.33s4.77,27.23,14.19,37.56c9.61,10.56,22.83,15.91,39.28,15.91Z"/>
          <path class="cls-1" d="M1147.19,389.13c13.42,14.24,29.81,25.63,48.72,33.85,18.91,8.23,40.52,12.4,64.24,12.4,7.98,0,13.72-.33,17.56-1.01,3.26-.58,7.39-1.25,12.4-2.02l7.12-1.09v-83.02l-10.05,2.03c-3.61.73-7.41,1.39-11.29,1.98-3.47.52-7.98.78-13.39.78-24.5,0-41.81-6.65-52.91-20.32-11.38-13.99-17.15-32.5-17.15-55.01v-62.45h90.75v-82.35h-90.75V52.69h-87.04v225.01c0,21.61,3.63,42.2,10.79,61.21,7.18,19.1,17.61,36,31.01,50.22Z"/>
          <path class="cls-1" d="M1350,389.08c13.21,14.24,29.3,25.64,47.82,33.87,18.54,8.25,38.99,12.43,60.78,12.43,23.19,0,43.46-4.68,60.25-13.92,11.5-6.32,21.7-14.32,30.49-23.86,2.95,10.26,6.66,20.29,11.11,29.97l2.25,4.88h88.73l-5.47-11.9c-6.35-13.8-11.08-27.7-14.06-41.32-3.03-13.81-5.14-27.15-6.28-39.65-1.14-12.56-1.72-24.22-1.72-34.66s-.2-20.01-.6-27.51c-.81-23.48-5.04-45.18-12.57-64.52-7.61-19.53-18.28-36.34-31.7-49.97-13.46-13.66-29.91-24.36-48.88-31.78-18.85-7.37-40.17-11.11-63.36-11.11-24.8,0-47.36,4.16-67.04,12.36-19.73,8.23-36.64,19.62-50.26,33.85-13.64,14.25-24.09,31.19-31.09,50.34-6.94,18.97-10.46,39.34-10.46,60.55s3.74,42.84,11.1,61.87c7.38,19.06,17.79,35.92,30.94,50.1ZM1394.99,277.7c0-10.85,1.37-21.1,4.06-30.46,2.58-8.96,6.76-16.88,12.4-23.55,5.55-6.56,12.87-11.79,21.74-15.55,9.06-3.83,20.37-5.78,33.61-5.78,24.08,0,40.91,6.35,51.42,19.41,10.88,13.51,16.95,32.39,18.05,56.11-.03,26.29-6.17,45.57-18.24,57.31-12.35,11.99-29.11,17.83-51.24,17.83-13.26,0-24.57-1.94-33.62-5.78-8.87-3.75-16.18-8.98-21.74-15.55-5.65-6.67-9.82-14.59-12.4-23.54-2.69-9.35-4.06-19.6-4.06-30.46Z"/>
          <rect class="cls-1" x="1676.79" y="5.85" width="87.04" height="426.6"/>
        </g>
        <g>
          <path class="cls-3" d="M2092.65,57.82c-17.82-2.17-36.23-3.27-54.73-3.27-29.8,0-56.74,5.04-80.06,14.98-23.37,9.96-43.29,23.7-59.19,40.83-15.89,17.11-28.16,37.52-36.49,60.67-8.27,23-12.46,47.92-12.46,74.06s4.19,51.06,12.46,74.06c8.32,23.15,20.6,43.56,36.49,60.67,15.92,17.14,35.83,30.88,59.19,40.83,23.31,9.94,50.25,14.97,80.06,14.97,18.5,0,36.91-1.1,54.73-3.27,17.89-2.18,34.46-5.52,49.25-9.92l5.99-1.78v-91.41l-12.02,5.8c-10.5,5.07-24.46,9.05-41.5,11.83-17.38,2.83-35.2,4.27-52.95,4.27-20.24,0-37.36-2.75-50.89-8.16-13.25-5.3-23.94-12.66-31.76-21.87-7.9-9.3-13.61-20.47-16.97-33.21-3.5-13.23-5.27-27.83-5.27-43.4s1.77-29.46,5.26-42.5c3.36-12.55,9.07-23.63,16.97-32.94,7.83-9.22,18.51-16.58,31.76-21.87,13.53-5.41,30.65-8.16,50.89-8.16,17.76,0,35.57,1.44,52.95,4.27,17.01,2.78,30.98,6.76,41.5,11.83l12.01,5.79v-91.4l-5.99-1.78c-14.78-4.39-31.35-7.73-49.25-9.92Z"/>
          <path class="cls-3" d="M2492.16,378.44c-3.02-13.76-5.13-27.07-6.26-39.54-1.14-12.52-1.71-24.15-1.71-34.56s-.2-19.99-.59-27.44c-.81-23.43-5.03-45.07-12.53-64.35-7.59-19.47-18.22-36.24-31.61-49.83-13.42-13.63-29.82-24.29-48.75-31.7-18.8-7.36-40.05-11.09-63.19-11.09-24.74,0-47.23,4.15-66.86,12.32-19.68,8.21-36.54,19.56-50.12,33.76-13.59,14.21-24.02,31.1-31,50.2-6.92,18.93-10.43,39.25-10.43,60.39s3.73,42.72,11.08,61.7c7.36,19.01,17.74,35.82,30.86,49.97,13.18,14.21,29.22,25.57,47.69,33.78,18.5,8.23,38.89,12.4,60.62,12.4,23.13,0,43.35-4.67,60.09-13.88,11.47-6.3,21.64-14.27,30.4-23.79,2.94,10.23,6.65,20.23,11.08,29.87l2.24,4.88h88.5l-5.46-11.88c-6.33-13.76-11.05-27.62-14.03-41.21ZM2396.78,277.38c-.03,26.22-6.15,45.45-18.19,57.15-12.31,11.96-29.02,17.77-51.09,17.77-13.22,0-24.49-1.94-33.52-5.76-8.84-3.74-16.14-8.95-21.68-15.5-5.63-6.65-9.79-14.55-12.36-23.48-2.69-9.32-4.05-19.53-4.05-30.37s1.36-21.05,4.05-30.37c2.58-8.93,6.73-16.83,12.36-23.48,5.53-6.54,12.83-11.75,21.68-15.5,9.04-3.82,20.32-5.76,33.52-5.76,24.01,0,40.78,6.33,51.28,19.35,10.84,13.47,16.9,32.29,18,55.95Z"/>
          <path class="cls-3" d="M2709.89,120.88c-4.64-.63-9.34-.95-13.97-.95-25.13,0-47.82,4.15-67.45,12.32-19.68,8.21-36.54,19.56-50.12,33.76-13.59,14.21-24.03,31.21-31.01,50.52-6.92,19.11-10.42,39.71-10.42,61.24v153.75h86.81v-154.34c0-10.49,1.27-20.45,3.79-29.61,2.35-8.57,6.42-16.05,12.1-22.23,5.73-6.23,13.44-11.32,22.93-15.11,9.66-3.86,22.07-5.82,36.88-5.82,3.42,0,6.69.26,9.72.76,3.42.57,7.03,1.24,10.83,2l10.01,1.99v-84.93l-6.88-1.25c-4.45-.81-8.9-1.51-13.21-2.1Z"/>
          <path class="cls-3" d="M2961.94,145.76c-7.46-5.91-15.68-10.97-24.58-15.12-15.27-7.1-33.06-10.71-52.87-10.71-21.71,0-42.1,4.17-60.62,12.4-18.5,8.23-34.54,19.59-47.69,33.78-13.12,14.14-23.5,30.95-30.86,49.96-7.35,18.98-11.08,39.74-11.08,61.7,0,20.33,3.3,40.12,9.81,58.8,6.58,18.92,16.7,35.83,30.09,50.24,13.36,14.4,30.11,26.06,49.79,34.67,19.66,8.6,42.59,12.96,68.16,12.96s47.17-4.15,66.6-12.33c19.48-8.2,36.15-19.57,49.56-33.8,13.4-14.22,23.62-31.13,30.41-50.23,6.71-18.91,10.11-39.4,10.11-60.89V6.08h-86.81v139.67ZM2943.75,219.85c12.07,11.73,18.19,31.03,18.19,57.34s-6.12,45.61-18.19,57.34c-12.31,11.96-29.03,17.77-51.09,17.77-13.22,0-24.5-1.94-33.52-5.76-8.84-3.74-16.14-8.95-21.68-15.5-5.63-6.65-9.79-14.55-12.36-23.48-2.69-9.32-4.05-19.53-4.05-30.37s1.36-21.05,4.05-30.37c2.58-8.93,6.73-16.83,12.36-23.48,5.53-6.54,12.83-11.75,21.69-15.5,9.03-3.82,20.31-5.76,33.51-5.76,22.07,0,38.78,5.81,51.09,17.77Z"/>
        </g>
        <g>
          <path class="cls-3" d="M1891.67,548.37c4.48.85,8.77,1.78,12.94,2.8,4.17,1.02,7.88,2.47,11.13,4.34,3.25,1.87,5.84,4.34,7.77,7.41,1.93,3.08,2.9,7.09,2.9,12.04s-1.09,9.44-3.27,13.11c-2.16,3.68-5.15,6.7-8.95,9.05-3.8,2.36-8.23,4.1-13.29,5.25-5.06,1.15-10.56,1.72-16.46,1.72-2.41,0-5.09-.09-8.05-.27-2.94-.18-6.01-.46-9.13-.82-3.15-.36-6.21-.78-9.23-1.27-3.02-.48-5.79-1.02-8.32-1.63v-20.44c2.05.6,4.55,1.11,7.51,1.54,2.94.42,6.07.78,9.3,1.08,3.27.3,6.54.54,9.86.72,3.33.18,6.36.27,9.13.27,7.24,0,12.4-.57,15.49-1.72,3.06-1.15,4.59-2.99,4.59-5.52,0-.84-.27-1.6-.8-2.26-.56-.66-1.63-1.33-3.27-1.99-1.62-.66-3.95-1.33-6.96-1.99-3.02-.66-6.99-1.47-11.94-2.44-2.3-.49-5.24-1.09-8.86-1.81-3.62-.73-7.16-2.05-10.59-3.98-3.43-1.93-6.42-4.58-8.95-7.96-2.53-3.38-3.8-7.9-3.8-13.57,0-4.83.96-9.02,2.9-12.57,1.91-3.56,4.61-6.51,8.04-8.87,3.45-2.35,7.51-4.1,12.22-5.24,4.7-1.15,9.83-1.72,15.37-1.72,2.18,0,4.68.09,7.51.27s5.7.45,8.6.82c2.89.36,5.79.78,8.69,1.27,2.89.48,5.54,1.02,7.95,1.63v20.44c-1.68-.48-3.92-.93-6.68-1.35-2.78-.43-5.71-.82-8.77-1.18-3.08-.36-6.21-.63-9.42-.82-3.18-.18-6.05-.27-8.58-.27-6.4,0-10.82.61-13.29,1.81-2.47,1.21-3.71,2.89-3.71,5.06,0,1.21.32,2.2,1,2.99.65.79,1.77,1.51,3.34,2.17,1.56.66,3.67,1.3,6.33,1.9,2.65.6,5.9,1.27,9.76,1.99Z"/>
          <path class="cls-3" d="M1983.04,571.34c-3.98,0-8.05-.48-12.22-1.44-4.15-.96-7.98-2.29-11.48-3.98,1.09,5.19,3.71,9.35,7.86,12.48,4.18,3.14,10.72,4.7,19.64,4.7,1.93,0,4.15-.1,6.68-.27,2.53-.18,5.12-.39,7.79-.63,2.65-.24,5.18-.57,7.6-.99,2.41-.43,4.46-.93,6.15-1.54v20.44c-2.16.6-4.55,1.15-7.14,1.63-2.61.49-5.23.91-7.88,1.27-2.66.36-5.23.63-7.7.82-2.47.18-4.78.27-6.95.27-8.1,0-15.16-1.2-21.26-3.61s-11.16-5.7-15.19-9.86c-4.05-4.17-7.07-9.05-9.05-14.66-1.99-5.61-2.99-11.55-2.99-17.82s1.03-12.57,3.09-18.18c2.03-5.61,5.04-10.52,8.95-14.74,3.92-4.22,8.75-7.53,14.46-9.94,5.74-2.41,12.28-3.62,19.64-3.62,5.54,0,10.67.72,15.37,2.17,4.71,1.45,8.77,3.5,12.22,6.15,3.45,2.65,6.1,5.79,7.95,9.41,1.88,3.61,2.81,7.66,2.81,12.12s-.93,8.53-2.81,12.21c-1.86,3.68-4.49,6.82-7.86,9.41-3.39,2.6-7.42,4.62-12.13,6.06-4.7,1.45-9.88,2.17-15.55,2.17ZM1983.22,550.35c5.06,0,9.04-.75,11.94-2.26,2.9-1.5,4.34-3.71,4.34-6.6s-1.41-5.09-4.24-6.6c-2.86-1.51-6.68-2.26-11.5-2.26-6.4,0-11.42,1.24-15.11,3.71-3.68,2.47-6.36,5.76-8.05,9.86,3.27,1.33,6.9,2.36,10.95,3.08,4.03.72,7.92,1.08,11.66,1.08Z"/>
          <path class="cls-3" d="M2031.89,630.13c0-8.92,2.71-15.95,8.13-21.07,5.43-5.12,13.28-8.35,23.53-9.68v-14.83c-4.83-1.08-9.07-2.77-12.75-5.06-3.68-2.29-6.8-5.01-9.33-8.14-2.53-3.14-4.45-6.63-5.77-10.49-1.34-3.86-2-7.9-2-12.12,0-5.06.97-9.86,2.9-14.38,1.93-4.52,4.7-8.47,8.32-11.84,3.62-3.38,8.05-6.03,13.31-7.96,5.24-1.93,11.23-2.89,17.99-2.89,4.83,0,9.28.52,13.4,1.54,4.09,1.02,7.77,2.44,11.03,4.25,2.65-1.45,5.21-2.5,7.69-3.17,2.47-.66,4.78-1.11,6.96-1.35,2.18-.24,4.17-.36,5.98-.36h7.77v18.09h-3.25c-1.93,0-3.8.09-5.61.27-1.81.18-3.62.63-5.42,1.36,2.65,5.06,3.98,10.56,3.98,16.46,0,4.47-.77,8.72-2.27,12.76-1.5,4.04-3.68,7.69-6.51,10.95-2.84,3.25-6.33,6-10.5,8.23-4.17,2.23-8.89,3.77-14.21,4.62v13.57c11.34,1.08,20.05,4.22,26.15,9.41,6.1,5.18,9.13,12.48,9.13,21.88,0,10.61-3.86,18.54-11.57,23.79s-18.64,7.87-32.74,7.87-25.03-2.62-32.74-7.87c-7.71-5.25-11.57-13.18-11.57-23.79ZM2053.59,630.13c0,3.98,1.78,6.88,5.33,8.69,3.56,1.81,9.33,2.72,17.28,2.72s13.72-.91,17.28-2.72c3.55-1.81,5.33-4.7,5.33-8.69s-1.78-6.87-5.33-8.68c-3.56-1.81-9.33-2.72-17.28-2.72s-13.72.91-17.28,2.72c-3.55,1.81-5.33,4.7-5.33,8.68ZM2055.4,548.73c0,4.59,1.63,8.53,4.87,11.85,3.27,3.32,8.57,4.98,15.93,4.98s12.66-1.66,15.93-4.98c3.24-3.32,4.87-7.27,4.87-11.85s-1.63-8.53-4.87-11.85c-3.27-3.31-8.57-4.97-15.93-4.97s-12.66,1.66-15.93,4.97c-3.24,3.32-4.87,7.27-4.87,11.85Z"/>
          <path class="cls-3" d="M2184.38,583.64c7.71,0,13.43-2.41,17.11-7.24,3.68-4.82,5.51-11.03,5.51-18.63v-45.23h21.72v45.23c0,6.4-.99,12.39-2.99,18-1.99,5.61-4.89,10.5-8.69,14.66s-8.44,7.45-13.93,9.86c-5.48,2.41-11.72,3.62-18.73,3.62s-13.22-1.21-18.73-3.62c-5.48-2.41-10.13-5.7-13.93-9.86-3.8-4.16-6.68-9.05-8.69-14.66-1.97-5.61-2.97-11.6-2.97-18v-45.23h21.7v45.23c0,7.6,1.86,13.81,5.54,18.63,3.67,4.83,9.36,7.24,17.08,7.24Z"/>
          <path class="cls-3" d="M2272.13,603h-21.7v-45.04c0-6.4,1.02-12.43,3.06-18.09,2.06-5.67,5.06-10.59,9.04-14.74,3.99-4.16,8.86-7.44,14.66-9.86,5.79-2.41,12.43-3.62,19.9-3.62,1.33,0,2.65.09,3.98.27s2.65.39,3.98.63v20.99c-1.21-.24-2.36-.46-3.43-.63-1.09-.18-2.24-.27-3.43-.27-4.95,0-9.08.66-12.4,1.99-3.33,1.33-6.01,3.11-8.05,5.34-2.05,2.24-3.5,4.89-4.34,7.96-.85,3.07-1.27,6.36-1.27,9.86v45.23Z"/>
          <path class="cls-3" d="M2311.74,557.77c0-6.39,1.02-12.39,3.08-18,2.05-5.61,5.06-10.5,9.04-14.66,3.98-4.16,8.83-7.44,14.58-9.86,5.71-2.41,12.2-3.62,19.43-3.62s13.72,1.21,19.46,3.62c5.71,2.41,10.57,5.7,14.55,9.86,3.99,4.16,7.01,9.05,9.05,14.66,2.05,5.61,3.08,11.61,3.08,18s-1.03,12.39-3.08,18c-2.05,5.61-5.06,10.5-9.05,14.66-3.98,4.16-8.83,7.45-14.55,9.86-5.74,2.41-12.22,3.62-19.46,3.62s-13.72-1.21-19.43-3.62c-5.74-2.41-10.6-5.7-14.58-9.86-3.98-4.16-6.99-9.05-9.04-14.66-2.06-5.61-3.08-11.6-3.08-18ZM2333.46,557.77c0,3.62.44,6.99,1.35,10.13.9,3.14,2.36,5.88,4.33,8.23,2,2.36,4.53,4.2,7.6,5.52,3.09,1.33,6.8,1.99,11.13,1.99s8.05-.66,11.13-1.99c3.08-1.33,5.61-3.17,7.6-5.52,2-2.35,3.45-5.09,4.34-8.23.9-3.14,1.35-6.51,1.35-10.13s-.46-6.99-1.35-10.13c-.9-3.14-2.34-5.88-4.34-8.23-1.99-2.36-4.52-4.2-7.6-5.52-3.08-1.33-6.77-1.99-11.13-1.99s-8.04.66-11.13,1.99c-3.06,1.33-5.59,3.17-7.6,5.52-1.97,2.35-3.43,5.09-4.33,8.23-.91,3.14-1.35,6.51-1.35,10.13Z"/>
          <path class="cls-3" d="M2500.25,580.39l27.13-67.84h21.7l-37.98,90.45h-21.7l-38-90.45h21.72l27.13,67.84Z"/>
          <path class="cls-3" d="M2557.77,488.31c0-3.86,1.24-7.12,3.71-9.77,2.47-2.65,5.89-3.98,10.22-3.98s7.71,1.35,10.13,4.07c2.41,2.72,3.62,5.94,3.62,9.68s-1.21,7.15-3.62,9.86c-2.41,2.72-5.77,4.07-10.13,4.07s-7.74-1.35-10.22-4.07c-2.47-2.71-3.71-6-3.71-9.86ZM2582.56,603h-21.7v-90.45h21.7v90.45Z"/>
          <path class="cls-3" d="M2599.02,557.59c0-6.26,1.03-12.2,3.08-17.81,2.05-5.61,5.06-10.5,9.04-14.66,3.99-4.16,8.88-7.44,14.65-9.86,5.8-2.41,12.37-3.62,19.73-3.62,6.86,0,13.07,1.09,18.64,3.25,5.54,2.17,10.28,5.25,14.19,9.23,3.92,3.98,6.98,8.83,9.22,14.56,2.24,5.73,3.47,12.09,3.71,19.09.12,2.29.18,5.09.18,8.41s.18,6.96.56,10.95c.35,3.98,1,8.17,1.97,12.57.97,4.4,2.47,8.83,4.53,13.29h-21.7c-2.06-4.46-3.56-9.11-4.53-13.93-3.15,4.58-7.13,8.2-11.93,10.85-4.83,2.66-10.63,3.98-17.37,3.98-6.39,0-12.31-1.21-17.73-3.62-5.43-2.41-10.07-5.7-13.93-9.86-3.87-4.16-6.89-9.05-9.05-14.66-2.16-5.61-3.25-11.67-3.25-18.18ZM2645.51,531.91c-4.48,0-8.27.66-11.4,1.99-3.15,1.33-5.71,3.17-7.69,5.52-2,2.35-3.45,5.09-4.36,8.23-.9,3.14-1.35,6.51-1.35,10.13s.46,6.99,1.35,10.13c.91,3.14,2.36,5.88,4.36,8.23,1.97,2.36,4.53,4.2,7.69,5.52,3.12,1.33,6.92,1.99,11.4,1.99,7.48,0,13.34-2.08,17.64-6.24,4.27-4.16,6.42-10.7,6.42-19.62-.35-7.96-2.41-14.26-6.15-18.9-3.74-4.64-9.72-6.96-17.9-6.96Z"/>
          <path class="cls-3" d="M2703.96,630.13c0-8.92,2.71-15.95,8.13-21.07,5.45-5.12,13.28-8.35,23.53-9.68v-14.83c-4.83-1.08-9.07-2.77-12.75-5.06-3.68-2.29-6.8-5.01-9.33-8.14s-4.45-6.63-5.77-10.49c-1.33-3.86-2-7.9-2-12.12,0-5.06.97-9.86,2.89-14.38,1.94-4.52,4.71-8.47,8.33-11.84s8.04-6.03,13.31-7.96c5.24-1.93,11.25-2.89,17.99-2.89,4.83,0,9.28.52,13.4,1.54,4.09,1.02,7.77,2.44,11.01,4.25,2.65-1.45,5.24-2.5,7.71-3.17,2.44-.66,4.77-1.11,6.95-1.35,2.18-.24,4.15-.36,5.98-.36h7.77v18.09h-3.27c-1.91,0-3.8.09-5.59.27-1.8.18-3.62.63-5.42,1.36,2.65,5.06,3.98,10.56,3.98,16.46,0,4.47-.77,8.72-2.27,12.76-1.5,4.04-3.68,7.69-6.51,10.95-2.83,3.25-6.33,6-10.51,8.23-4.15,2.23-8.89,3.77-14.19,4.62v13.57c11.34,1.08,20.05,4.22,26.15,9.41,6.1,5.18,9.13,12.48,9.13,21.88,0,10.61-3.86,18.54-11.57,23.79-7.71,5.25-18.64,7.87-32.74,7.87s-25.03-2.62-32.74-7.87c-7.71-5.25-11.57-13.18-11.57-23.79ZM2725.66,630.13c0,3.98,1.77,6.88,5.33,8.69,3.56,1.81,9.33,2.72,17.28,2.72s13.72-.91,17.28-2.72,5.33-4.7,5.33-8.69-1.77-6.87-5.33-8.68c-3.56-1.81-9.33-2.72-17.28-2.72s-13.72.91-17.28,2.72c-3.56,1.81-5.33,4.7-5.33,8.68ZM2727.46,548.73c0,4.59,1.65,8.53,4.89,11.85,3.27,3.32,8.57,4.98,15.93,4.98s12.66-1.66,15.93-4.98c3.24-3.32,4.89-7.27,4.89-11.85s-1.65-8.53-4.89-11.85c-3.27-3.31-8.57-4.97-15.93-4.97s-12.66,1.66-15.93,4.97c-3.24,3.32-4.89,7.27-4.89,11.85Z"/>
          <path class="cls-3" d="M2852.27,571.34c-3.98,0-8.04-.48-12.19-1.44-4.18-.96-8.01-2.29-11.48-3.98,1.06,5.19,3.71,9.35,7.86,12.48,4.15,3.14,10.69,4.7,19.61,4.7,1.94,0,4.18-.1,6.71-.27,2.53-.18,5.12-.39,7.77-.63,2.65-.24,5.18-.57,7.6-.99,2.41-.43,4.48-.93,6.15-1.54v20.44c-2.18.6-4.56,1.15-7.16,1.63-2.59.49-5.21.91-7.86,1.27-2.65.36-5.21.63-7.69.82-2.47.18-4.8.27-6.98.27-8.07,0-15.16-1.2-21.26-3.61-6.07-2.41-11.16-5.7-15.19-9.86-4.03-4.17-7.04-9.05-9.04-14.66-1.97-5.61-2.97-11.55-2.97-17.82s1-12.57,3.06-18.18c2.06-5.61,5.04-10.52,8.95-14.74,3.92-4.22,8.75-7.53,14.49-9.94,5.71-2.41,12.28-3.62,19.61-3.62,5.57,0,10.69.72,15.4,2.17,4.68,1.45,8.77,3.5,12.19,6.15,3.45,2.65,6.1,5.79,7.98,9.41,1.86,3.61,2.8,7.66,2.8,12.12s-.94,8.53-2.8,12.21c-1.88,3.68-4.51,6.82-7.89,9.41-3.36,2.6-7.39,4.62-12.1,6.06-4.71,1.45-9.89,2.17-15.58,2.17ZM2852.48,550.35c5.06,0,9.04-.75,11.93-2.26,2.89-1.5,4.36-3.71,4.36-6.6s-1.44-5.09-4.27-6.6c-2.83-1.51-6.65-2.26-11.48-2.26-6.39,0-11.42,1.24-15.11,3.71-3.68,2.47-6.36,5.76-8.04,9.86,3.24,1.33,6.89,2.36,10.92,3.08s7.95,1.08,11.69,1.08Z"/>
          <path class="cls-3" d="M2948.35,511.64c7.01,0,13.01,1.66,18.02,4.98,5.01,3.32,8.95,7.75,11.84,13.29,2.89-5.54,6.83-9.97,11.84-13.29,5.01-3.31,11.01-4.98,18.02-4.98,6.51,0,12.28,1.12,17.28,3.35,4.98,2.23,9.25,5.28,12.75,9.14,3.47,3.86,6.15,8.35,7.95,13.48s2.71,10.64,2.71,16.55v48.85h-21.7v-48.85c0-6.51-1.53-11.84-4.62-16-3.06-4.17-7.86-6.24-14.37-6.24s-11.31,2.08-14.4,6.24c-3.06,4.16-4.59,9.5-4.59,16v48.85h-21.73v-48.85c0-6.51-1.53-11.84-4.59-16-3.09-4.17-7.89-6.24-14.4-6.24s-11.31,2.08-14.37,6.24c-3.09,4.16-4.62,9.5-4.62,16v48.85h-21.7v-48.85c0-5.9.91-11.42,2.71-16.55,1.8-5.12,4.48-9.62,7.95-13.48,3.5-3.86,7.77-6.9,12.78-9.14,4.98-2.23,10.75-3.35,17.25-3.35Z"/>
        </g>
        <g>
          <path class="cls-1" d="M297.57,169.8h0c-12.66,12.67-33.2,12.67-45.87,0l-22.91-22.91-34.69-34.68c-1.61-1.61-3.27-3.13-4.98-4.56-19.3-16.17-44.8-21.15-67.92-14.96-12.36,3.31-24.04,9.82-33.74,19.52-9.69,9.69-16.2,21.37-19.51,33.73-6.75,25.18-.25,53.16,19.51,72.91l20.68,20.68c12.77,12.77,12.77,33.47,0,46.24-6.38,6.39-14.75,9.58-23.12,9.58s-16.74-3.19-23.12-9.58l-20.68-20.68c-54.99-54.99-54.99-144.13,0-199.12,47.32-47.31,119.92-53.91,174.3-19.78,5.45,3.42,10.73,7.24,15.77,11.49l17.34,17.34,48.92,48.92c12.66,12.66,12.67,33.2,0,45.86Z"/>
          <path class="cls-1" d="M431.73,245.92l-.56.56-166.82,166.83h0c-25.54,25.54-66.94,25.54-92.48,0h0s0,0,0,0l-50.66-50.66c-12.76-12.76-12.76-33.45,0-46.21h0c12.76-12.76,33.45-12.76,46.21,0l40.28,40.28c5.73,5.73,15.03,5.74,20.76,0l72.71-72.65,23.61-23.61-.03-.03,60.46-60.46c19.75-19.75,26.26-47.73,19.52-72.9-3.31-12.36-9.82-24.04-19.52-33.73-9.69-9.7-21.38-16.2-33.73-19.52-6.13-1.64-12.42-2.5-18.73-2.57-8.47-.1-16.54-3.57-22.53-9.56-6.67-6.67-9.65-14.86-9.65-22.89,0-16.94,13.25-33.19,33.11-32.94,35.43.45,70.73,14.19,97.77,41.22,19.62,19.62,32.24,43.58,37.85,68.79,10.11,45.34-2.41,94.7-37.57,130.05Z"/>
        </g>
        <g>
          <path class="cls-2" d="M1433.19,347.25c9.05,3.83,20.35,5.78,33.62,5.78,22.13,0,38.89-5.83,51.24-17.83,12.07-11.74,18.21-31.02,18.24-57.31-1.1-23.72-7.18-42.6-18.05-56.11-10.52-13.06-27.34-19.41-51.42-19.41-13.25,0-24.55,1.94-33.61,5.78-8.88,3.76-16.19,8.99-21.74,15.55-5.64,6.67-9.81,14.59-12.4,23.55-2.69,9.36-4.06,19.61-4.06,30.46s1.37,21.11,4.06,30.46c2.58,8.95,6.75,16.87,12.4,23.54,5.56,6.57,12.87,11.8,21.74,15.55Z"/>
          <polygon class="cls-1" points="793.33 432.45 946.55 57.37 852.14 57.37 752.57 322.34 653 57.37 558.59 57.37 711.81 432.45 793.33 432.45"/>
          <rect class="cls-1" x="969.57" y="122.95" width="87.04" height="309.51"/>
          <path class="cls-1" d="M1013.09,106.36c16.48,0,29.62-5.38,39.06-15.99,9.18-10.32,13.83-22.94,13.83-37.48s-4.65-26.57-13.83-36.9c-9.44-10.61-22.58-15.99-39.06-15.99s-29.6,5.23-39.22,15.55c-9.46,10.15-14.25,22.71-14.25,37.33s4.77,27.23,14.19,37.56c9.61,10.56,22.83,15.91,39.28,15.91Z"/>
          <path class="cls-1" d="M1147.19,389.13c13.42,14.24,29.81,25.63,48.72,33.85,18.91,8.23,40.52,12.4,64.24,12.4,7.98,0,13.72-.33,17.56-1.01,3.26-.58,7.39-1.25,12.4-2.02l7.12-1.09v-83.02l-10.05,2.03c-3.61.73-7.41,1.39-11.29,1.98-3.47.52-7.98.78-13.39.78-24.5,0-41.81-6.65-52.91-20.32-11.38-13.99-17.15-32.5-17.15-55.01v-62.45h90.75v-82.35h-90.75V52.69h-87.04v225.01c0,21.61,3.63,42.2,10.79,61.21,7.18,19.1,17.61,36,31.01,50.22Z"/>
          <path class="cls-1" d="M1350,389.08c13.21,14.24,29.3,25.64,47.82,33.87,18.54,8.25,38.99,12.43,60.78,12.43,23.19,0,43.46-4.68,60.25-13.92,11.5-6.32,21.7-14.32,30.49-23.86,2.95,10.26,6.66,20.29,11.11,29.97l2.25,4.88h88.73l-5.47-11.9c-6.35-13.8-11.08-27.7-14.06-41.32-3.03-13.81-5.14-27.15-6.28-39.65-1.14-12.56-1.72-24.22-1.72-34.66s-.2-20.01-.6-27.51c-.81-23.48-5.04-45.18-12.57-64.52-7.61-19.53-18.28-36.34-31.7-49.97-13.46-13.66-29.91-24.36-48.88-31.78-18.85-7.37-40.17-11.11-63.36-11.11-24.8,0-47.36,4.16-67.04,12.36-19.73,8.23-36.64,19.62-50.26,33.85-13.64,14.25-24.09,31.19-31.09,50.34-6.94,18.97-10.46,39.34-10.46,60.55s3.74,42.84,11.1,61.87c7.38,19.06,17.79,35.92,30.94,50.1ZM1394.99,277.7c0-10.85,1.37-21.1,4.06-30.46,2.58-8.96,6.76-16.88,12.4-23.55,5.55-6.56,12.87-11.79,21.74-15.55,9.06-3.83,20.37-5.78,33.61-5.78,24.08,0,40.91,6.35,51.42,19.41,10.88,13.51,16.95,32.39,18.05,56.11-.03,26.29-6.17,45.57-18.24,57.31-12.35,11.99-29.11,17.83-51.24,17.83-13.26,0-24.57-1.94-33.62-5.78-8.87-3.75-16.18-8.98-21.74-15.55-5.65-6.67-9.82-14.59-12.4-23.54-2.69-9.35-4.06-19.6-4.06-30.46Z"/>
          <rect class="cls-1" x="1676.79" y="5.85" width="87.04" height="426.6"/>
        </g>
        <g>
          <path class="cls-3" d="M2092.65,57.82c-17.82-2.17-36.23-3.27-54.73-3.27-29.8,0-56.74,5.04-80.06,14.98-23.37,9.96-43.29,23.7-59.19,40.83-15.89,17.11-28.16,37.52-36.49,60.67-8.27,23-12.46,47.92-12.46,74.06s4.19,51.06,12.46,74.06c8.32,23.15,20.6,43.56,36.49,60.67,15.92,17.14,35.83,30.88,59.19,40.83,23.31,9.94,50.25,14.97,80.06,14.97,18.5,0,36.91-1.1,54.73-3.27,17.89-2.18,34.46-5.52,49.25-9.92l5.99-1.78v-91.41l-12.02,5.8c-10.5,5.07-24.46,9.05-41.5,11.83-17.38,2.83-35.2,4.27-52.95,4.27-20.24,0-37.36-2.75-50.89-8.16-13.25-5.3-23.94-12.66-31.76-21.87-7.9-9.3-13.61-20.47-16.97-33.21-3.5-13.23-5.27-27.83-5.27-43.4s1.77-29.46,5.26-42.5c3.36-12.55,9.07-23.63,16.97-32.94,7.83-9.22,18.51-16.58,31.76-21.87,13.53-5.41,30.65-8.16,50.89-8.16,17.76,0,35.57,1.44,52.95,4.27,17.01,2.78,30.98,6.76,41.5,11.83l12.01,5.79v-91.4l-5.99-1.78c-14.78-4.39-31.35-7.73-49.25-9.92Z"/>
          <path class="cls-3" d="M2492.16,378.44c-3.02-13.76-5.13-27.07-6.26-39.54-1.14-12.52-1.71-24.15-1.71-34.56s-.2-19.99-.59-27.44c-.81-23.43-5.03-45.07-12.53-64.35-7.59-19.47-18.22-36.24-31.61-49.83-13.42-13.63-29.82-24.29-48.75-31.7-18.8-7.36-40.05-11.09-63.19-11.09-24.74,0-47.23,4.15-66.86,12.32-19.68,8.21-36.54,19.56-50.12,33.76-13.59,14.21-24.02,31.1-31,50.2-6.92,18.93-10.43,39.25-10.43,60.39s3.73,42.72,11.08,61.7c7.36,19.01,17.74,35.82,30.86,49.97,13.18,14.21,29.22,25.57,47.69,33.78,18.5,8.23,38.89,12.4,60.62,12.4,23.13,0,43.35-4.67,60.09-13.88,11.47-6.3,21.64-14.27,30.4-23.79,2.94,10.23,6.65,20.23,11.08,29.87l2.24,4.88h88.5l-5.46-11.88c-6.33-13.76-11.05-27.62-14.03-41.21ZM2396.78,277.38c-.03,26.22-6.15,45.45-18.19,57.15-12.31,11.96-29.02,17.77-51.09,17.77-13.22,0-24.49-1.94-33.52-5.76-8.84-3.74-16.14-8.95-21.68-15.5-5.63-6.65-9.79-14.55-12.36-23.48-2.69-9.32-4.05-19.53-4.05-30.37s1.36-21.05,4.05-30.37c2.58-8.93,6.73-16.83,12.36-23.48,5.53-6.54,12.83-11.75,21.68-15.5,9.04-3.82,20.32-5.76,33.52-5.76,24.01,0,40.78,6.33,51.28,19.35,10.84,13.47,16.9,32.29,18,55.95Z"/>
          <path class="cls-3" d="M2709.89,120.88c-4.64-.63-9.34-.95-13.97-.95-25.13,0-47.82,4.15-67.45,12.32-19.68,8.21-36.54,19.56-50.12,33.76-13.59,14.21-24.03,31.21-31.01,50.52-6.92,19.11-10.42,39.71-10.42,61.24v153.75h86.81v-154.34c0-10.49,1.27-20.45,3.79-29.61,2.35-8.57,6.42-16.05,12.1-22.23,5.73-6.23,13.44-11.32,22.93-15.11,9.66-3.86,22.07-5.82,36.88-5.82,3.42,0,6.69.26,9.72.76,3.42.57,7.03,1.24,10.83,2l10.01,1.99v-84.93l-6.88-1.25c-4.45-.81-8.9-1.51-13.21-2.1Z"/>
          <path class="cls-3" d="M2961.94,145.76c-7.46-5.91-15.68-10.97-24.58-15.12-15.27-7.1-33.06-10.71-52.87-10.71-21.71,0-42.1,4.17-60.62,12.4-18.5,8.23-34.54,19.59-47.69,33.78-13.12,14.14-23.5,30.95-30.86,49.96-7.35,18.98-11.08,39.74-11.08,61.7,0,20.33,3.3,40.12,9.81,58.8,6.58,18.92,16.7,35.83,30.09,50.24,13.36,14.4,30.11,26.06,49.79,34.67,19.66,8.6,42.59,12.96,68.16,12.96s47.17-4.15,66.6-12.33c19.48-8.2,36.15-19.57,49.56-33.8,13.4-14.22,23.62-31.13,30.41-50.23,6.71-18.91,10.11-39.4,10.11-60.89V6.08h-86.81v139.67ZM2943.75,219.85c12.07,11.73,18.19,31.03,18.19,57.34s-6.12,45.61-18.19,57.34c-12.31,11.96-29.03,17.77-51.09,17.77-13.22,0-24.5-1.94-33.52-5.76-8.84-3.74-16.14-8.95-21.68-15.5-5.63-6.65-9.79-14.55-12.36-23.48-2.69-9.32-4.05-19.53-4.05-30.37s1.36-21.05,4.05-30.37c2.58-8.93,6.73-16.83,12.36-23.48,5.53-6.54,12.83-11.75,21.69-15.5,9.03-3.82,20.31-5.76,33.51-5.76,22.07,0,38.78,5.81,51.09,17.77Z"/>
        </g>
        <g>
          <path class="cls-3" d="M1891.67,548.37c4.48.85,8.77,1.78,12.94,2.8,4.17,1.02,7.88,2.47,11.13,4.34,3.25,1.87,5.84,4.34,7.77,7.41,1.93,3.08,2.9,7.09,2.9,12.04s-1.09,9.44-3.27,13.11c-2.16,3.68-5.15,6.7-8.95,9.05-3.8,2.36-8.23,4.1-13.29,5.25-5.06,1.15-10.56,1.72-16.46,1.72-2.41,0-5.09-.09-8.05-.27-2.94-.18-6.01-.46-9.13-.82-3.15-.36-6.21-.78-9.23-1.27-3.02-.48-5.79-1.02-8.32-1.63v-20.44c2.05.6,4.55,1.11,7.51,1.54,2.94.42,6.07.78,9.3,1.08,3.27.3,6.54.54,9.86.72,3.33.18,6.36.27,9.13.27,7.24,0,12.4-.57,15.49-1.72,3.06-1.15,4.59-2.99,4.59-5.52,0-.84-.27-1.6-.8-2.26-.56-.66-1.63-1.33-3.27-1.99-1.62-.66-3.95-1.33-6.96-1.99-3.02-.66-6.99-1.47-11.94-2.44-2.3-.49-5.24-1.09-8.86-1.81-3.62-.73-7.16-2.05-10.59-3.98-3.43-1.93-6.42-4.58-8.95-7.96-2.53-3.38-3.8-7.9-3.8-13.57,0-4.83.96-9.02,2.9-12.57,1.91-3.56,4.61-6.51,8.04-8.87,3.45-2.35,7.51-4.1,12.22-5.24,4.7-1.15,9.83-1.72,15.37-1.72,2.18,0,4.68.09,7.51.27s5.7.45,8.6.82c2.89.36,5.79.78,8.69,1.27,2.89.48,5.54,1.02,7.95,1.63v20.44c-1.68-.48-3.92-.93-6.68-1.35-2.78-.43-5.71-.82-8.77-1.18-3.08-.36-6.21-.63-9.42-.82-3.18-.18-6.05-.27-8.58-.27-6.4,0-10.82.61-13.29,1.81-2.47,1.21-3.71,2.89-3.71,5.06,0,1.21.32,2.2,1,2.99.65.79,1.77,1.51,3.34,2.17,1.56.66,3.67,1.3,6.33,1.9,2.65.6,5.9,1.27,9.76,1.99Z"/>
          <path class="cls-3" d="M1983.04,571.34c-3.98,0-8.05-.48-12.22-1.44-4.15-.96-7.98-2.29-11.48-3.98,1.09,5.19,3.71,9.35,7.86,12.48,4.18,3.14,10.72,4.7,19.64,4.7,1.93,0,4.15-.1,6.68-.27,2.53-.18,5.12-.39,7.79-.63,2.65-.24,5.18-.57,7.6-.99,2.41-.43,4.46-.93,6.15-1.54v20.44c-2.16.6-4.55,1.15-7.14,1.63-2.61.49-5.23.91-7.88,1.27-2.66.36-5.23.63-7.7.82-2.47.18-4.78.27-6.95.27-8.1,0-15.16-1.2-21.26-3.61s-11.16-5.7-15.19-9.86c-4.05-4.17-7.07-9.05-9.05-14.66-1.99-5.61-2.99-11.55-2.99-17.82s1.03-12.57,3.09-18.18c2.03-5.61,5.04-10.52,8.95-14.74,3.92-4.22,8.75-7.53,14.46-9.94,5.74-2.41,12.28-3.62,19.64-3.62,5.54,0,10.67.72,15.37,2.17,4.71,1.45,8.77,3.5,12.22,6.15,3.45,2.65,6.1,5.79,7.95,9.41,1.88,3.61,2.81,7.66,2.81,12.12s-.93,8.53-2.81,12.21c-1.86,3.68-4.49,6.82-7.86,9.41-3.39,2.6-7.42,4.62-12.13,6.06-4.7,1.45-9.88,2.17-15.55,2.17ZM1983.22,550.35c5.06,0,9.04-.75,11.94-2.26,2.9-1.5,4.34-3.71,4.34-6.6s-1.41-5.09-4.24-6.6c-2.86-1.51-6.68-2.26-11.5-2.26-6.4,0-11.42,1.24-15.11,3.71-3.68,2.47-6.36,5.76-8.05,9.86,3.27,1.33,6.9,2.36,10.95,3.08,4.03.72,7.92,1.08,11.66,1.08Z"/>
          <path class="cls-3" d="M2031.89,630.13c0-8.92,2.71-15.95,8.13-21.07,5.43-5.12,13.28-8.35,23.53-9.68v-14.83c-4.83-1.08-9.07-2.77-12.75-5.06-3.68-2.29-6.8-5.01-9.33-8.14-2.53-3.14-4.45-6.63-5.77-10.49-1.34-3.86-2-7.9-2-12.12,0-5.06.97-9.86,2.9-14.38,1.93-4.52,4.7-8.47,8.32-11.84,3.62-3.38,8.05-6.03,13.31-7.96,5.24-1.93,11.23-2.89,17.99-2.89,4.83,0,9.28.52,13.4,1.54,4.09,1.02,7.77,2.44,11.03,4.25,2.65-1.45,5.21-2.5,7.69-3.17,2.47-.66,4.78-1.11,6.96-1.35,2.18-.24,4.17-.36,5.98-.36h7.77v18.09h-3.25c-1.93,0-3.8.09-5.61.27-1.81.18-3.62.63-5.42,1.36,2.65,5.06,3.98,10.56,3.98,16.46,0,4.47-.77,8.72-2.27,12.76-1.5,4.04-3.68,7.69-6.51,10.95-2.84,3.25-6.33,6-10.5,8.23-4.17,2.23-8.89,3.77-14.21,4.62v13.57c11.34,1.08,20.05,4.22,26.15,9.41,6.1,5.18,9.13,12.48,9.13,21.88,0,10.61-3.86,18.54-11.57,23.79s-18.64,7.87-32.74,7.87-25.03-2.62-32.74-7.87c-7.71-5.25-11.57-13.18-11.57-23.79ZM2053.59,630.13c0,3.98,1.78,6.88,5.33,8.69,3.56,1.81,9.33,2.72,17.28,2.72s13.72-.91,17.28-2.72c3.55-1.81,5.33-4.7,5.33-8.69s-1.78-6.87-5.33-8.68c-3.56-1.81-9.33-2.72-17.28-2.72s-13.72.91-17.28,2.72c-3.55,1.81-5.33,4.7-5.33,8.68ZM2055.4,548.73c0,4.59,1.63,8.53,4.87,11.85,3.27,3.32,8.57,4.98,15.93,4.98s12.66-1.66,15.93-4.98c3.24-3.32,4.87-7.27,4.87-11.85s-1.63-8.53-4.87-11.85c-3.27-3.31-8.57-4.97-15.93-4.97s-12.66,1.66-15.93,4.97c-3.24,3.32-4.87,7.27-4.87,11.85Z"/>
          <path class="cls-3" d="M2184.38,583.64c7.71,0,13.43-2.41,17.11-7.24,3.68-4.82,5.51-11.03,5.51-18.63v-45.23h21.72v45.23c0,6.4-.99,12.39-2.99,18-1.99,5.61-4.89,10.5-8.69,14.66s-8.44,7.45-13.93,9.86c-5.48,2.41-11.72,3.62-18.73,3.62s-13.22-1.21-18.73-3.62c-5.48-2.41-10.13-5.7-13.93-9.86-3.8-4.16-6.68-9.05-8.69-14.66-1.97-5.61-2.97-11.6-2.97-18v-45.23h21.7v45.23c0,7.6,1.86,13.81,5.54,18.63,3.67,4.83,9.36,7.24,17.08,7.24Z"/>
          <path class="cls-3" d="M2272.13,603h-21.7v-45.04c0-6.4,1.02-12.43,3.06-18.09,2.06-5.67,5.06-10.59,9.04-14.74,3.99-4.16,8.86-7.44,14.66-9.86,5.79-2.41,12.43-3.62,19.9-3.62,1.33,0,2.65.09,3.98.27s2.65.39,3.98.63v20.99c-1.21-.24-2.36-.46-3.43-.63-1.09-.18-2.24-.27-3.43-.27-4.95,0-9.08.66-12.4,1.99-3.33,1.33-6.01,3.11-8.05,5.34-2.05,2.24-3.5,4.89-4.34,7.96-.85,3.07-1.27,6.36-1.27,9.86v45.23Z"/>
          <path class="cls-3" d="M2311.74,557.77c0-6.39,1.02-12.39,3.08-18,2.05-5.61,5.06-10.5,9.04-14.66,3.98-4.16,8.83-7.44,14.58-9.86,5.71-2.41,12.2-3.62,19.43-3.62s13.72,1.21,19.46,3.62c5.71,2.41,10.57,5.7,14.55,9.86,3.99,4.16,7.01,9.05,9.05,14.66,2.05,5.61,3.08,11.61,3.08,18s-1.03,12.39-3.08,18c-2.05,5.61-5.06,10.5-9.05,14.66-3.98,4.16-8.83,7.45-14.55,9.86-5.74,2.41-12.22,3.62-19.46,3.62s-13.72-1.21-19.43-3.62c-5.74-2.41-10.6-5.7-14.58-9.86-3.98-4.16-6.99-9.05-9.04-14.66-2.06-5.61-3.08-11.6-3.08-18ZM2333.46,557.77c0,3.62.44,6.99,1.35,10.13.9,3.14,2.36,5.88,4.33,8.23,2,2.36,4.53,4.2,7.6,5.52,3.09,1.33,6.8,1.99,11.13,1.99s8.05-.66,11.13-1.99c3.08-1.33,5.61-3.17,7.6-5.52,2-2.35,3.45-5.09,4.34-8.23.9-3.14,1.35-6.51,1.35-10.13s-.46-6.99-1.35-10.13c-.9-3.14-2.34-5.88-4.34-8.23-1.99-2.36-4.52-4.2-7.6-5.52-3.08-1.33-6.77-1.99-11.13-1.99s-8.04.66-11.13,1.99c-3.06,1.33-5.59,3.17-7.6,5.52-1.97,2.35-3.43,5.09-4.33,8.23-.91,3.14-1.35,6.51-1.35,10.13Z"/>
          <path class="cls-3" d="M2500.25,580.39l27.13-67.84h21.7l-37.98,90.45h-21.7l-38-90.45h21.72l27.13,67.84Z"/>
          <path class="cls-3" d="M2557.77,488.31c0-3.86,1.24-7.12,3.71-9.77,2.47-2.65,5.89-3.98,10.22-3.98s7.71,1.35,10.13,4.07c2.41,2.72,3.62,5.94,3.62,9.68s-1.21,7.15-3.62,9.86c-2.41,2.72-5.77,4.07-10.13,4.07s-7.74-1.35-10.22-4.07c-2.47-2.71-3.71-6-3.71-9.86ZM2582.56,603h-21.7v-90.45h21.7v90.45Z"/>
          <path class="cls-3" d="M2599.02,557.59c0-6.26,1.03-12.2,3.08-17.81,2.05-5.61,5.06-10.5,9.04-14.66,3.99-4.16,8.88-7.44,14.65-9.86,5.8-2.41,12.37-3.62,19.73-3.62,6.86,0,13.07,1.09,18.64,3.25,5.54,2.17,10.28,5.25,14.19,9.23,3.92,3.98,6.98,8.83,9.22,14.56,2.24,5.73,3.47,12.09,3.71,19.09.12,2.29.18,5.09.18,8.41s.18,6.96.56,10.95c.35,3.98,1,8.17,1.97,12.57.97,4.4,2.47,8.83,4.53,13.29h-21.7c-2.06-4.46-3.56-9.11-4.53-13.93-3.15,4.58-7.13,8.2-11.93,10.85-4.83,2.66-10.63,3.98-17.37,3.98-6.39,0-12.31-1.21-17.73-3.62-5.43-2.41-10.07-5.7-13.93-9.86-3.87-4.16-6.89-9.05-9.05-14.66-2.16-5.61-3.25-11.67-3.25-18.18ZM2645.51,531.91c-4.48,0-8.27.66-11.4,1.99-3.15,1.33-5.71,3.17-7.69,5.52-2,2.35-3.45,5.09-4.36,8.23-.9,3.14-1.35,6.51-1.35,10.13s.46,6.99,1.35,10.13c.91,3.14,2.36,5.88,4.36,8.23,1.97,2.36,4.53,4.2,7.69,5.52,3.12,1.33,6.92,1.99,11.4,1.99,7.48,0,13.34-2.08,17.64-6.24,4.27-4.16,6.42-10.7,6.42-19.62-.35-7.96-2.41-14.26-6.15-18.9-3.74-4.64-9.72-6.96-17.9-6.96Z"/>
          <path class="cls-3" d="M2703.96,630.13c0-8.92,2.71-15.95,8.13-21.07,5.45-5.12,13.28-8.35,23.53-9.68v-14.83c-4.83-1.08-9.07-2.77-12.75-5.06-3.68-2.29-6.8-5.01-9.33-8.14s-4.45-6.63-5.77-10.49c-1.33-3.86-2-7.9-2-12.12,0-5.06.97-9.86,2.89-14.38,1.94-4.52,4.71-8.47,8.33-11.84s8.04-6.03,13.31-7.96c5.24-1.93,11.25-2.89,17.99-2.89,4.83,0,9.28.52,13.4,1.54,4.09,1.02,7.77,2.44,11.01,4.25,2.65-1.45,5.24-2.5,7.71-3.17,2.44-.66,4.77-1.11,6.95-1.35,2.18-.24,4.15-.36,5.98-.36h7.77v18.09h-3.27c-1.91,0-3.8.09-5.59.27-1.8.18-3.62.63-5.42,1.36,2.65,5.06,3.98,10.56,3.98,16.46,0,4.47-.77,8.72-2.27,12.76-1.5,4.04-3.68,7.69-6.51,10.95-2.83,3.25-6.33,6-10.51,8.23-4.15,2.23-8.89,3.77-14.19,4.62v13.57c11.34,1.08,20.05,4.22,26.15,9.41,6.1,5.18,9.13,12.48,9.13,21.88,0,10.61-3.86,18.54-11.57,23.79-7.71,5.25-18.64,7.87-32.74,7.87s-25.03-2.62-32.74-7.87c-7.71-5.25-11.57-13.18-11.57-23.79ZM2725.66,630.13c0,3.98,1.77,6.88,5.33,8.69,3.56,1.81,9.33,2.72,17.28,2.72s13.72-.91,17.28-2.72,5.33-4.7,5.33-8.69-1.77-6.87-5.33-8.68c-3.56-1.81-9.33-2.72-17.28-2.72s-13.72.91-17.28,2.72c-3.56,1.81-5.33,4.7-5.33,8.68ZM2727.46,548.73c0,4.59,1.65,8.53,4.89,11.85,3.27,3.32,8.57,4.98,15.93,4.98s12.66-1.66,15.93-4.98c3.24-3.32,4.89-7.27,4.89-11.85s-1.65-8.53-4.89-11.85c-3.27-3.31-8.57-4.97-15.93-4.97s-12.66,1.66-15.93,4.97c-3.24,3.32-4.89,7.27-4.89,11.85Z"/>
          <path class="cls-3" d="M2852.27,571.34c-3.98,0-8.04-.48-12.19-1.44-4.18-.96-8.01-2.29-11.48-3.98,1.06,5.19,3.71,9.35,7.86,12.48,4.15,3.14,10.69,4.7,19.61,4.7,1.94,0,4.18-.1,6.71-.27,2.53-.18,5.12-.39,7.77-.63,2.65-.24,5.18-.57,7.6-.99,2.41-.43,4.48-.93,6.15-1.54v20.44c-2.18.6-4.56,1.15-7.16,1.63-2.59.49-5.21.91-7.86,1.27-2.65.36-5.21.63-7.69.82-2.47.18-4.8.27-6.98.27-8.07,0-15.16-1.2-21.26-3.61-6.07-2.41-11.16-5.7-15.19-9.86-4.03-4.17-7.04-9.05-9.04-14.66-1.97-5.61-2.97-11.55-2.97-17.82s1-12.57,3.06-18.18c2.06-5.61,5.04-10.52,8.95-14.74,3.92-4.22,8.75-7.53,14.49-9.94,5.71-2.41,12.28-3.62,19.61-3.62,5.57,0,10.69.72,15.4,2.17,4.68,1.45,8.77,3.5,12.19,6.15,3.45,2.65,6.1,5.79,7.98,9.41,1.86,3.61,2.8,7.66,2.8,12.12s-.94,8.53-2.8,12.21c-1.88,3.68-4.51,6.82-7.89,9.41-3.36,2.6-7.39,4.62-12.1,6.06-4.71,1.45-9.89,2.17-15.58,2.17ZM2852.48,550.35c5.06,0,9.04-.75,11.93-2.26,2.89-1.5,4.36-3.71,4.36-6.6s-1.44-5.09-4.27-6.6c-2.83-1.51-6.65-2.26-11.48-2.26-6.39,0-11.42,1.24-15.11,3.71-3.68,2.47-6.36,5.76-8.04,9.86,3.24,1.33,6.89,2.36,10.92,3.08s7.95,1.08,11.69,1.08Z"/>
          <path class="cls-3" d="M2948.35,511.64c7.01,0,13.01,1.66,18.02,4.98,5.01,3.32,8.95,7.75,11.84,13.29,2.89-5.54,6.83-9.97,11.84-13.29,5.01-3.31,11.01-4.98,18.02-4.98,6.51,0,12.28,1.12,17.28,3.35,4.98,2.23,9.25,5.28,12.75,9.14,3.47,3.86,6.15,8.35,7.95,13.48s2.71,10.64,2.71,16.55v48.85h-21.7v-48.85c0-6.51-1.53-11.84-4.62-16-3.06-4.17-7.86-6.24-14.37-6.24s-11.31,2.08-14.4,6.24c-3.06,4.16-4.59,9.5-4.59,16v48.85h-21.73v-48.85c0-6.51-1.53-11.84-4.59-16-3.09-4.17-7.89-6.24-14.4-6.24s-11.31,2.08-14.37,6.24c-3.09,4.16-4.62,9.5-4.62,16v48.85h-21.7v-48.85c0-5.9.91-11.42,2.71-16.55,1.8-5.12,4.48-9.62,7.95-13.48,3.5-3.86,7.77-6.9,12.78-9.14,4.98-2.23,10.75-3.35,17.25-3.35Z"/>
        </g>
      </g>
      <g>
        <path class="cls-3" d="M3196.45,108.92c-31.36,30.05-83.23,15.59-94.95-26.27-12.7-45.35,30.23-86.58,74.27-71.16,40.65,14.22,52.05,67.37,20.68,97.43ZM3153.12,12.89c-34.35,2.02-57.53,37.67-46.7,70.69,13.69,41.77,68.98,50.02,94.01,13.89,25.82-37.27-2.73-87.21-47.3-84.59Z"/>
        <path class="cls-3" d="M3136.97,38.7h24.62c9.29.7,17.49,3.22,19.22,13.66,1.39,8.39-.7,17.1-8.79,20.91-.81.38-1.65.58-2.44.91-.16.07-.29-.09-.24.27l14.19,20.2h-11.77l-13.19-18.76h-12.27v18.76h-9.35v-55.95ZM3146.31,67.27c5.59-.25,11.54.49,17.06-.39,5.19-.83,7.82-3.37,8.16-8.81.56-9.2-4.39-10.59-12.27-10.92-3.9.36-8.56-.45-12.37,0-.24.03-.43.02-.58.26v19.86Z"/>
      </g>
    </g>
  </g>
</svg>