<?xml version="1.0" encoding="UTF-8"?>
<svg xmlns="http://www.w3.org/2000/svg" xmlns:xlink="http://www.w3.org/1999/xlink" viewBox="0 0 3175.05 435.62">
  <defs>
    <style>
      .cls-1 {
        stroke: url(#Unnamed_Pattern-5);
      }

      .cls-1, .cls-2, .cls-3, .cls-4, .cls-5, .cls-6, .cls-7 {
        fill: #99d420;
      }

      .cls-1, .cls-3, .cls-4, .cls-5, .cls-6, .cls-7 {
        stroke-miterlimit: 10;
        stroke-width: 1.12px;
      }

      .cls-3 {
        stroke: url(#Unnamed_Pattern);
      }

      .cls-8 {
        fill: none;
      }

      .cls-9 {
        fill: #2646a2;
      }

      .cls-4 {
        stroke: url(#Unnamed_Pattern-6);
      }

      .cls-5 {
        stroke: url(#Unnamed_Pattern-3);
      }

      .cls-6 {
        stroke: url(#Unnamed_Pattern-4);
      }

      .cls-7 {
        stroke: url(#Unnamed_Pattern-2);
      }

      .cls-10 {
        clip-path: url(#clippath);
      }
    </style>
    <clipPath id="clippath">
      <rect class="cls-8" x="-4021.88" y="-348.14" width="3528.41" height="1973.11"/>
    </clipPath>
    <pattern id="Unnamed_Pattern" data-name="Unnamed Pattern" x="0" y="0" width="3797.65" height="902.72" patternTransform="translate(4114.23 426.96) scale(1.12)" patternUnits="userSpaceOnUse" viewBox="0 0 3797.65 902.72">
      <g>
        <rect class="cls-8" x="0" width="3797.65" height="902.72"/>
        <g>
          <g>
            <g>
              <path class="cls-2" d="M2232.58,231.28h0c-17.87,17.87-46.84,17.87-64.7,0l-32.31-32.31-48.93-48.92c-2.26-2.26-4.62-4.41-7.03-6.43-27.23-22.81-63.2-29.84-95.81-21.11-17.44,4.67-33.91,13.85-47.6,27.53-13.67,13.67-22.85,30.15-27.52,47.58-9.52,35.52-.35,74.99,27.52,102.86l29.17,29.17c18.01,18.01,18.01,47.22,0,65.23-9,9.01-20.81,13.51-32.61,13.51s-23.61-4.5-32.61-13.51l-29.17-29.17c-77.57-77.57-77.57-203.33,0-280.9,66.75-66.74,169.18-76.05,245.89-27.91,7.69,4.82,15.14,10.22,22.25,16.21l24.46,24.46,69.02,69.02c17.87,17.87,17.87,46.83,0,64.7Z"/>
              <path class="cls-2" d="M2421.84,338.66l-.78.78-235.34,235.35h0c-36.02,36.03-94.43,36.03-130.46,0h0s0,0,0,0l-71.46-71.46c-18-18-18-47.19,0-65.19h0c18-18,47.19-18,65.19,0l56.82,56.82c8.09,8.09,21.2,8.09,29.29,0l102.58-102.49,33.3-33.3-.05-.05,85.29-85.29c27.86-27.86,37.05-67.34,27.53-102.85-4.67-17.43-13.85-33.91-27.53-47.59-13.67-13.68-30.16-22.86-47.59-27.53-8.64-2.31-17.53-3.52-26.42-3.62-11.94-.14-23.33-5.03-31.78-13.48-9.41-9.41-13.61-20.96-13.61-32.3,0-23.9,18.69-46.82,46.72-46.46,49.99.63,99.78,20.01,137.92,58.15,27.68,27.68,45.48,61.48,53.39,97.04,14.27,63.96-3.41,133.59-53.01,183.46Z"/>
            </g>
            <g>
              <path class="cls-2" d="M3117.41,231.28h0c-17.87,17.87-46.84,17.87-64.7,0l-32.31-32.31-48.93-48.92c-2.26-2.26-4.62-4.41-7.03-6.43-27.23-22.81-63.2-29.84-95.81-21.11-17.44,4.67-33.91,13.85-47.6,27.53-13.67,13.67-22.85,30.15-27.52,47.58-9.52,35.52-.35,74.99,27.52,102.86l29.17,29.17c18.01,18.01,18.01,47.22,0,65.23-9,9.01-20.81,13.51-32.61,13.51s-23.61-4.5-32.61-13.51l-29.17-29.17c-77.57-77.57-77.57-203.33,0-280.9,66.75-66.74,169.18-76.05,245.89-27.91,7.69,4.82,15.14,10.22,22.25,16.21l24.46,24.46,69.02,69.02c17.87,17.87,17.87,46.83,0,64.7Z"/>
              <path class="cls-2" d="M3306.68,338.66l-.78.78-235.34,235.35h0c-36.02,36.03-94.43,36.03-130.46,0h0s0,0,0,0l-71.46-71.46c-18-18-18-47.19,0-65.19h0c18-18,47.19-18,65.19,0l56.82,56.82c8.09,8.09,21.2,8.09,29.29,0l102.58-102.49,33.3-33.3-.05-.05,85.29-85.29c27.86-27.86,37.05-67.34,27.53-102.85-4.67-17.43-13.85-33.91-27.53-47.59-13.67-13.68-30.16-22.86-47.59-27.53-8.64-2.31-17.53-3.52-26.42-3.62-11.94-.14-23.33-5.03-31.78-13.48-9.41-9.41-13.61-20.96-13.61-32.3,0-23.9,18.69-46.82,46.72-46.46,49.99.63,99.78,20.01,137.92,58.15,27.68,27.68,45.48,61.48,53.39,97.04,14.27,63.96-3.41,133.59-53.01,183.46Z"/>
            </g>
            <g>
              <path class="cls-2" d="M2468.19,671.44h0c17.87-17.87,46.84-17.87,64.7,0l32.31,32.31,48.93,48.92c2.26,2.26,4.62,4.41,7.03,6.43,27.23,22.81,63.2,29.84,95.81,21.11,17.44-4.67,33.91-13.85,47.6-27.53,13.67-13.67,22.85-30.15,27.52-47.58,9.52-35.52.35-74.99-27.52-102.86l-29.17-29.17c-18.01-18.01-18.01-47.22,0-65.23,9-9.01,20.81-13.51,32.61-13.51s23.61,4.5,32.61,13.51l29.17,29.17c77.57,77.57,77.57,203.33,0,280.9-66.75,66.74-169.18,76.05-245.89,27.91-7.69-4.82-15.14-10.22-22.25-16.21l-24.46-24.46-69.02-69.02c-17.87-17.87-17.87-46.83,0-64.7Z"/>
              <path class="cls-2" d="M2278.93,564.06l.78-.78,235.34-235.35h0c36.02-36.03,94.43-36.03,130.46,0h0s0,0,0,0l71.46,71.46c18,18,18,47.19,0,65.19h0c-18,18-47.19,18-65.19,0l-56.82-56.82c-8.09-8.09-21.2-8.09-29.29,0l-102.58,102.49-33.3,33.3.05.05-85.29,85.29c-27.86,27.86-37.05,67.34-27.53,102.85,4.67,17.43,13.85,33.91,27.53,47.59,13.67,13.68,30.16,22.86,47.59,27.53,8.64,2.31,17.53,3.52,26.42,3.62,11.94.14,23.33,5.03,31.78,13.48,9.41,9.41,13.61,20.96,13.61,32.3,0,23.9-18.69,46.82-46.72,46.46-49.99-.63-99.78-20.01-137.92-58.15-27.68-27.68-45.48-61.48-53.39-97.04-14.27-63.96,3.41-133.59,53.01-183.46Z"/>
            </g>
            <g>
              <path class="cls-2" d="M3377.86,671.44h0c17.87-17.87,46.84-17.87,64.7,0l32.31,32.31,48.93,48.92c2.26,2.26,4.62,4.41,7.03,6.43,27.23,22.81,63.2,29.84,95.81,21.11,17.44-4.67,33.91-13.85,47.6-27.53,13.67-13.67,22.85-30.15,27.52-47.58,9.52-35.52.35-74.99-27.52-102.86l-29.17-29.17c-18.01-18.01-18.01-47.22,0-65.23,9-9.01,20.81-13.51,32.61-13.51s23.61,4.5,32.61,13.51l29.17,29.17c77.57,77.57,77.57,203.33,0,280.9-66.75,66.74-169.18,76.05-245.89,27.91-7.69-4.82-15.14-10.22-22.25-16.21l-24.46-24.46-69.02-69.02c-17.87-17.87-17.87-46.83,0-64.7Z"/>
              <path class="cls-2" d="M3188.59,564.06l.78-.78,235.34-235.35h0c36.02-36.03,94.43-36.03,130.46,0h0s0,0,0,0l71.46,71.46c18,18,18,47.19,0,65.19h0c-18,18-47.19,18-65.19,0l-56.82-56.82c-8.09-8.09-21.2-8.09-29.29,0l-102.58,102.49-33.3,33.3.05.05-85.29,85.29c-27.86,27.86-37.05,67.34-27.53,102.85,4.67,17.43,13.85,33.91,27.53,47.59,13.67,13.68,30.16,22.86,47.59,27.53,8.64,2.31,17.53,3.52,26.42,3.62,11.94.14,23.33,5.03,31.78,13.48,9.41,9.41,13.61,20.96,13.61,32.3,0,23.9-18.69,46.82-46.72,46.46-49.99-.63-99.78-20.01-137.92-58.15-27.68-27.68-45.48-61.48-53.39-97.04-14.27-63.96,3.41-133.59,53.01-183.46Z"/>
            </g>
          </g>
          <g>
            <g>
              <path class="cls-2" d="M419.79,231.28h0c-17.87,17.87-46.84,17.87-64.7,0l-32.31-32.31-48.93-48.92c-2.26-2.26-4.62-4.41-7.03-6.43-27.23-22.81-63.2-29.84-95.81-21.11-17.44,4.67-33.91,13.85-47.6,27.53-13.67,13.67-22.85,30.15-27.52,47.58-9.52,35.52-.35,74.99,27.52,102.86l29.17,29.17c18.01,18.01,18.01,47.22,0,65.23-9,9.01-20.81,13.51-32.61,13.51s-23.61-4.5-32.61-13.51l-29.17-29.17c-77.57-77.57-77.57-203.33,0-280.9C124.92,18.07,227.36,8.76,304.06,56.9c7.69,4.82,15.14,10.22,22.25,16.21l24.46,24.46,69.02,69.02c17.87,17.87,17.87,46.83,0,64.7Z"/>
              <path class="cls-2" d="M609.06,338.66l-.78.78-235.34,235.35h0c-36.02,36.03-94.43,36.03-130.46,0h0s0,0,0,0l-71.46-71.46c-18-18-18-47.19,0-65.19h0c18-18,47.19-18,65.19,0l56.82,56.82c8.09,8.09,21.2,8.09,29.29,0l102.58-102.49,33.3-33.3-.05-.05,85.29-85.29c27.86-27.86,37.05-67.34,27.53-102.85-4.67-17.43-13.85-33.91-27.53-47.59-13.67-13.68-30.16-22.86-47.59-27.53-8.64-2.31-17.53-3.52-26.42-3.62-11.94-.14-23.33-5.03-31.78-13.48-9.41-9.41-13.61-20.96-13.61-32.3C424.03,22.56,442.72-.35,470.75,0c49.99.63,99.78,20.01,137.92,58.15,27.68,27.68,45.48,61.48,53.39,97.04,14.27,63.96-3.41,133.59-53.01,183.46Z"/>
            </g>
            <g>
              <path class="cls-2" d="M1304.62,231.28h0c-17.87,17.87-46.84,17.87-64.7,0l-32.31-32.31-48.93-48.92c-2.26-2.26-4.62-4.41-7.03-6.43-27.23-22.81-63.2-29.84-95.81-21.11-17.44,4.67-33.91,13.85-47.6,27.53-13.67,13.67-22.85,30.15-27.52,47.58-9.52,35.52-.35,74.99,27.52,102.86l29.17,29.17c18.01,18.01,18.01,47.22,0,65.23-9,9.01-20.81,13.51-32.61,13.51s-23.61-4.5-32.61-13.51l-29.17-29.17c-77.57-77.57-77.57-203.33,0-280.9,66.75-66.74,169.18-76.05,245.89-27.91,7.69,4.82,15.14,10.22,22.25,16.21l24.46,24.46,69.02,69.02c17.87,17.87,17.87,46.83,0,64.7Z"/>
              <path class="cls-2" d="M1493.89,338.66l-.78.78-235.34,235.35h0c-36.02,36.03-94.43,36.03-130.46,0h0s0,0,0,0l-71.46-71.46c-18-18-18-47.19,0-65.19h0c18-18,47.19-18,65.19,0l56.82,56.82c8.09,8.09,21.2,8.09,29.29,0l102.58-102.49,33.3-33.3-.05-.05,85.29-85.29c27.86-27.86,37.05-67.34,27.53-102.85-4.67-17.43-13.85-33.91-27.53-47.59-13.67-13.68-30.16-22.86-47.59-27.53-8.64-2.31-17.53-3.52-26.42-3.62-11.94-.14-23.33-5.03-31.78-13.48-9.41-9.41-13.61-20.96-13.61-32.3,0-23.9,18.69-46.82,46.72-46.46,49.99.63,99.78,20.01,137.92,58.15,27.68,27.68,45.48,61.48,53.39,97.04,14.27,63.96-3.41,133.59-53.01,183.46Z"/>
            </g>
            <g>
              <path class="cls-2" d="M655.4,671.44h0c17.87-17.87,46.84-17.87,64.7,0l32.31,32.31,48.93,48.92c2.26,2.26,4.62,4.41,7.03,6.43,27.23,22.81,63.2,29.84,95.81,21.11,17.44-4.67,33.91-13.85,47.6-27.53,13.67-13.67,22.85-30.15,27.52-47.58,9.52-35.52.35-74.99-27.52-102.86l-29.17-29.17c-18.01-18.01-18.01-47.22,0-65.23,9-9.01,20.81-13.51,32.61-13.51s23.61,4.5,32.61,13.51l29.17,29.17c77.57,77.57,77.57,203.33,0,280.9-66.75,66.74-169.18,76.05-245.89,27.91-7.69-4.82-15.14-10.22-22.25-16.21l-24.46-24.46-69.02-69.02c-17.87-17.87-17.87-46.83,0-64.7Z"/>
              <path class="cls-2" d="M466.14,564.06l.78-.78,235.34-235.35h0c36.02-36.03,94.43-36.03,130.46,0h0s0,0,0,0l71.46,71.46c18,18,18,47.19,0,65.19h0c-18,18-47.19,18-65.19,0l-56.82-56.82c-8.09-8.09-21.2-8.09-29.29,0l-102.58,102.49-33.3,33.3.05.05-85.29,85.29c-27.86,27.86-37.05,67.34-27.53,102.85,4.67,17.43,13.85,33.91,27.53,47.59,13.67,13.68,30.16,22.86,47.59,27.53,8.64,2.31,17.53,3.52,26.42,3.62,11.94.14,23.33,5.03,31.78,13.48,9.41,9.41,13.61,20.96,13.61,32.3,0,23.9-18.69,46.82-46.72,46.46-49.99-.63-99.78-20.01-137.92-58.15-27.68-27.68-45.48-61.48-53.39-97.04-14.27-63.96,3.41-133.59,53.01-183.46Z"/>
            </g>
            <g>
              <path class="cls-2" d="M1565.07,671.44h0c17.87-17.87,46.84-17.87,64.7,0l32.31,32.31,48.93,48.92c2.26,2.26,4.62,4.41,7.03,6.43,27.23,22.81,63.2,29.84,95.81,21.11,17.44-4.67,33.91-13.85,47.6-27.53,13.67-13.67,22.85-30.15,27.52-47.58,9.52-35.52.35-74.99-27.52-102.86l-29.17-29.17c-18.01-18.01-18.01-47.22,0-65.23,9-9.01,20.81-13.51,32.61-13.51s23.61,4.5,32.61,13.51l29.17,29.17c77.57,77.57,77.57,203.33,0,280.9-66.75,66.74-169.18,76.05-245.89,27.91-7.69-4.82-15.14-10.22-22.25-16.21l-24.46-24.46-69.02-69.02c-17.87-17.87-17.87-46.83,0-64.7Z"/>
              <path class="cls-2" d="M1375.81,564.06l.78-.78,235.34-235.35h0c36.02-36.03,94.43-36.03,130.46,0h0s0,0,0,0l71.46,71.46c18,18,18,47.19,0,65.19h0c-18,18-47.19,18-65.19,0l-56.82-56.82c-8.09-8.09-21.2-8.09-29.29,0l-102.58,102.49-33.3,33.3.05.05-85.29,85.29c-27.86,27.86-37.05,67.34-27.53,102.85,4.67,17.43,13.85,33.91,27.53,47.59,13.67,13.68,30.16,22.86,47.59,27.53,8.64,2.31,17.53,3.52,26.42,3.62,11.94.14,23.33,5.03,31.78,13.48,9.41,9.41,13.61,20.96,13.61,32.3,0,23.9-18.69,46.82-46.72,46.46-49.99-.63-99.78-20.01-137.92-58.15-27.68-27.68-45.48-61.48-53.39-97.04-14.27-63.96,3.41-133.59,53.01-183.46Z"/>
            </g>
          </g>
        </g>
        <g>
          <g>
            <g>
              <path class="cls-2" d="M2232.58,231.28h0c-17.87,17.87-46.84,17.87-64.7,0l-32.31-32.31-48.93-48.92c-2.26-2.26-4.62-4.41-7.03-6.43-27.23-22.81-63.2-29.84-95.81-21.11-17.44,4.67-33.91,13.85-47.6,27.53-13.67,13.67-22.85,30.15-27.52,47.58-9.52,35.52-.35,74.99,27.52,102.86l29.17,29.17c18.01,18.01,18.01,47.22,0,65.23-9,9.01-20.81,13.51-32.61,13.51s-23.61-4.5-32.61-13.51l-29.17-29.17c-77.57-77.57-77.57-203.33,0-280.9,66.75-66.74,169.18-76.05,245.89-27.91,7.69,4.82,15.14,10.22,22.25,16.21l24.46,24.46,69.02,69.02c17.87,17.87,17.87,46.83,0,64.7Z"/>
              <path class="cls-2" d="M2421.84,338.66l-.78.78-235.34,235.35h0c-36.02,36.03-94.43,36.03-130.46,0h0s0,0,0,0l-71.46-71.46c-18-18-18-47.19,0-65.19h0c18-18,47.19-18,65.19,0l56.82,56.82c8.09,8.09,21.2,8.09,29.29,0l102.58-102.49,33.3-33.3-.05-.05,85.29-85.29c27.86-27.86,37.05-67.34,27.53-102.85-4.67-17.43-13.85-33.91-27.53-47.59-13.67-13.68-30.16-22.86-47.59-27.53-8.64-2.31-17.53-3.52-26.42-3.62-11.94-.14-23.33-5.03-31.78-13.48-9.41-9.41-13.61-20.96-13.61-32.3,0-23.9,18.69-46.82,46.72-46.46,49.99.63,99.78,20.01,137.92,58.15,27.68,27.68,45.48,61.48,53.39,97.04,14.27,63.96-3.41,133.59-53.01,183.46Z"/>
            </g>
            <g>
              <path class="cls-2" d="M3117.41,231.28h0c-17.87,17.87-46.84,17.87-64.7,0l-32.31-32.31-48.93-48.92c-2.26-2.26-4.62-4.41-7.03-6.43-27.23-22.81-63.2-29.84-95.81-21.11-17.44,4.67-33.91,13.85-47.6,27.53-13.67,13.67-22.85,30.15-27.52,47.58-9.52,35.52-.35,74.99,27.52,102.86l29.17,29.17c18.01,18.01,18.01,47.22,0,65.23-9,9.01-20.81,13.51-32.61,13.51s-23.61-4.5-32.61-13.51l-29.17-29.17c-77.57-77.57-77.57-203.33,0-280.9,66.75-66.74,169.18-76.05,245.89-27.91,7.69,4.82,15.14,10.22,22.25,16.21l24.46,24.46,69.02,69.02c17.87,17.87,17.87,46.83,0,64.7Z"/>
              <path class="cls-2" d="M3306.68,338.66l-.78.78-235.34,235.35h0c-36.02,36.03-94.43,36.03-130.46,0h0s0,0,0,0l-71.46-71.46c-18-18-18-47.19,0-65.19h0c18-18,47.19-18,65.19,0l56.82,56.82c8.09,8.09,21.2,8.09,29.29,0l102.58-102.49,33.3-33.3-.05-.05,85.29-85.29c27.86-27.86,37.05-67.34,27.53-102.85-4.67-17.43-13.85-33.91-27.53-47.59-13.67-13.68-30.16-22.86-47.59-27.53-8.64-2.31-17.53-3.52-26.42-3.62-11.94-.14-23.33-5.03-31.78-13.48-9.41-9.41-13.61-20.96-13.61-32.3,0-23.9,18.69-46.82,46.72-46.46,49.99.63,99.78,20.01,137.92,58.15,27.68,27.68,45.48,61.48,53.39,97.04,14.27,63.96-3.41,133.59-53.01,183.46Z"/>
            </g>
            <g>
              <path class="cls-2" d="M2468.19,671.44h0c17.87-17.87,46.84-17.87,64.7,0l32.31,32.31,48.93,48.92c2.26,2.26,4.62,4.41,7.03,6.43,27.23,22.81,63.2,29.84,95.81,21.11,17.44-4.67,33.91-13.85,47.6-27.53,13.67-13.67,22.85-30.15,27.52-47.58,9.52-35.52.35-74.99-27.52-102.86l-29.17-29.17c-18.01-18.01-18.01-47.22,0-65.23,9-9.01,20.81-13.51,32.61-13.51s23.61,4.5,32.61,13.51l29.17,29.17c77.57,77.57,77.57,203.33,0,280.9-66.75,66.74-169.18,76.05-245.89,27.91-7.69-4.82-15.14-10.22-22.25-16.21l-24.46-24.46-69.02-69.02c-17.87-17.87-17.87-46.83,0-64.7Z"/>
              <path class="cls-2" d="M2278.93,564.06l.78-.78,235.34-235.35h0c36.02-36.03,94.43-36.03,130.46,0h0s0,0,0,0l71.46,71.46c18,18,18,47.19,0,65.19h0c-18,18-47.19,18-65.19,0l-56.82-56.82c-8.09-8.09-21.2-8.09-29.29,0l-102.58,102.49-33.3,33.3.05.05-85.29,85.29c-27.86,27.86-37.05,67.34-27.53,102.85,4.67,17.43,13.85,33.91,27.53,47.59,13.67,13.68,30.16,22.86,47.59,27.53,8.64,2.31,17.53,3.52,26.42,3.62,11.94.14,23.33,5.03,31.78,13.48,9.41,9.41,13.61,20.96,13.61,32.3,0,23.9-18.69,46.82-46.72,46.46-49.99-.63-99.78-20.01-137.92-58.15-27.68-27.68-45.48-61.48-53.39-97.04-14.27-63.96,3.41-133.59,53.01-183.46Z"/>
            </g>
            <g>
              <path class="cls-2" d="M3377.86,671.44h0c17.87-17.87,46.84-17.87,64.7,0l32.31,32.31,48.93,48.92c2.26,2.26,4.62,4.41,7.03,6.43,27.23,22.81,63.2,29.84,95.81,21.11,17.44-4.67,33.91-13.85,47.6-27.53,13.67-13.67,22.85-30.15,27.52-47.58,9.52-35.52.35-74.99-27.52-102.86l-29.17-29.17c-18.01-18.01-18.01-47.22,0-65.23,9-9.01,20.81-13.51,32.61-13.51s23.61,4.5,32.61,13.51l29.17,29.17c77.57,77.57,77.57,203.33,0,280.9-66.75,66.74-169.18,76.05-245.89,27.91-7.69-4.82-15.14-10.22-22.25-16.21l-24.46-24.46-69.02-69.02c-17.87-17.87-17.87-46.83,0-64.7Z"/>
              <path class="cls-2" d="M3188.59,564.06l.78-.78,235.34-235.35h0c36.02-36.03,94.43-36.03,130.46,0h0s0,0,0,0l71.46,71.46c18,18,18,47.19,0,65.19h0c-18,18-47.19,18-65.19,0l-56.82-56.82c-8.09-8.09-21.2-8.09-29.29,0l-102.58,102.49-33.3,33.3.05.05-85.29,85.29c-27.86,27.86-37.05,67.34-27.53,102.85,4.67,17.43,13.85,33.91,27.53,47.59,13.67,13.68,30.16,22.86,47.59,27.53,8.64,2.31,17.53,3.52,26.42,3.62,11.94.14,23.33,5.03,31.78,13.48,9.41,9.41,13.61,20.96,13.61,32.3,0,23.9-18.69,46.82-46.72,46.46-49.99-.63-99.78-20.01-137.92-58.15-27.68-27.68-45.48-61.48-53.39-97.04-14.27-63.96,3.41-133.59,53.01-183.46Z"/>
            </g>
          </g>
          <g>
            <g>
              <path class="cls-2" d="M419.79,231.28h0c-17.87,17.87-46.84,17.87-64.7,0l-32.31-32.31-48.93-48.92c-2.26-2.26-4.62-4.41-7.03-6.43-27.23-22.81-63.2-29.84-95.81-21.11-17.44,4.67-33.91,13.85-47.6,27.53-13.67,13.67-22.85,30.15-27.52,47.58-9.52,35.52-.35,74.99,27.52,102.86l29.17,29.17c18.01,18.01,18.01,47.22,0,65.23-9,9.01-20.81,13.51-32.61,13.51s-23.61-4.5-32.61-13.51l-29.17-29.17c-77.57-77.57-77.57-203.33,0-280.9C124.92,18.07,227.36,8.76,304.06,56.9c7.69,4.82,15.14,10.22,22.25,16.21l24.46,24.46,69.02,69.02c17.87,17.87,17.87,46.83,0,64.7Z"/>
              <path class="cls-2" d="M609.06,338.66l-.78.78-235.34,235.35h0c-36.02,36.03-94.43,36.03-130.46,0h0s0,0,0,0l-71.46-71.46c-18-18-18-47.19,0-65.19h0c18-18,47.19-18,65.19,0l56.82,56.82c8.09,8.09,21.2,8.09,29.29,0l102.58-102.49,33.3-33.3-.05-.05,85.29-85.29c27.86-27.86,37.05-67.34,27.53-102.85-4.67-17.43-13.85-33.91-27.53-47.59-13.67-13.68-30.16-22.86-47.59-27.53-8.64-2.31-17.53-3.52-26.42-3.62-11.94-.14-23.33-5.03-31.78-13.48-9.41-9.41-13.61-20.96-13.61-32.3C424.03,22.56,442.72-.35,470.75,0c49.99.63,99.78,20.01,137.92,58.15,27.68,27.68,45.48,61.48,53.39,97.04,14.27,63.96-3.41,133.59-53.01,183.46Z"/>
            </g>
            <g>
              <path class="cls-2" d="M1304.62,231.28h0c-17.87,17.87-46.84,17.87-64.7,0l-32.31-32.31-48.93-48.92c-2.26-2.26-4.62-4.41-7.03-6.43-27.23-22.81-63.2-29.84-95.81-21.11-17.44,4.67-33.91,13.85-47.6,27.53-13.67,13.67-22.85,30.15-27.52,47.58-9.52,35.52-.35,74.99,27.52,102.86l29.17,29.17c18.01,18.01,18.01,47.22,0,65.23-9,9.01-20.81,13.51-32.61,13.51s-23.61-4.5-32.61-13.51l-29.17-29.17c-77.57-77.57-77.57-203.33,0-280.9,66.75-66.74,169.18-76.05,245.89-27.91,7.69,4.82,15.14,10.22,22.25,16.21l24.46,24.46,69.02,69.02c17.87,17.87,17.87,46.83,0,64.7Z"/>
              <path class="cls-2" d="M1493.89,338.66l-.78.78-235.34,235.35h0c-36.02,36.03-94.43,36.03-130.46,0h0s0,0,0,0l-71.46-71.46c-18-18-18-47.19,0-65.19h0c18-18,47.19-18,65.19,0l56.82,56.82c8.09,8.09,21.2,8.09,29.29,0l102.58-102.49,33.3-33.3-.05-.05,85.29-85.29c27.86-27.86,37.05-67.34,27.53-102.85-4.67-17.43-13.85-33.91-27.53-47.59-13.67-13.68-30.16-22.86-47.59-27.53-8.64-2.31-17.53-3.52-26.42-3.62-11.94-.14-23.33-5.03-31.78-13.48-9.41-9.41-13.61-20.96-13.61-32.3,0-23.9,18.69-46.82,46.72-46.46,49.99.63,99.78,20.01,137.92,58.15,27.68,27.68,45.48,61.48,53.39,97.04,14.27,63.96-3.41,133.59-53.01,183.46Z"/>
            </g>
            <g>
              <path class="cls-2" d="M655.4,671.44h0c17.87-17.87,46.84-17.87,64.7,0l32.31,32.31,48.93,48.92c2.26,2.26,4.62,4.41,7.03,6.43,27.23,22.81,63.2,29.84,95.81,21.11,17.44-4.67,33.91-13.85,47.6-27.53,13.67-13.67,22.85-30.15,27.52-47.58,9.52-35.52.35-74.99-27.52-102.86l-29.17-29.17c-18.01-18.01-18.01-47.22,0-65.23,9-9.01,20.81-13.51,32.61-13.51s23.61,4.5,32.61,13.51l29.17,29.17c77.57,77.57,77.57,203.33,0,280.9-66.75,66.74-169.18,76.05-245.89,27.91-7.69-4.82-15.14-10.22-22.25-16.21l-24.46-24.46-69.02-69.02c-17.87-17.87-17.87-46.83,0-64.7Z"/>
              <path class="cls-2" d="M466.14,564.06l.78-.78,235.34-235.35h0c36.02-36.03,94.43-36.03,130.46,0h0s0,0,0,0l71.46,71.46c18,18,18,47.19,0,65.19h0c-18,18-47.19,18-65.19,0l-56.82-56.82c-8.09-8.09-21.2-8.09-29.29,0l-102.58,102.49-33.3,33.3.05.05-85.29,85.29c-27.86,27.86-37.05,67.34-27.53,102.85,4.67,17.43,13.85,33.91,27.53,47.59,13.67,13.68,30.16,22.86,47.59,27.53,8.64,2.31,17.53,3.52,26.42,3.62,11.94.14,23.33,5.03,31.78,13.48,9.41,9.41,13.61,20.96,13.61,32.3,0,23.9-18.69,46.82-46.72,46.46-49.99-.63-99.78-20.01-137.92-58.15-27.68-27.68-45.48-61.48-53.39-97.04-14.27-63.96,3.41-133.59,53.01-183.46Z"/>
            </g>
            <g>
              <path class="cls-2" d="M1565.07,671.44h0c17.87-17.87,46.84-17.87,64.7,0l32.31,32.31,48.93,48.92c2.26,2.26,4.62,4.41,7.03,6.43,27.23,22.81,63.2,29.84,95.81,21.11,17.44-4.67,33.91-13.85,47.6-27.53,13.67-13.67,22.85-30.15,27.52-47.58,9.52-35.52.35-74.99-27.52-102.86l-29.17-29.17c-18.01-18.01-18.01-47.22,0-65.23,9-9.01,20.81-13.51,32.61-13.51s23.61,4.5,32.61,13.51l29.17,29.17c77.57,77.57,77.57,203.33,0,280.9-66.75,66.74-169.18,76.05-245.89,27.91-7.69-4.82-15.14-10.22-22.25-16.21l-24.46-24.46-69.02-69.02c-17.87-17.87-17.87-46.83,0-64.7Z"/>
              <path class="cls-2" d="M1375.81,564.06l.78-.78,235.34-235.35h0c36.02-36.03,94.43-36.03,130.46,0h0s0,0,0,0l71.46,71.46c18,18,18,47.19,0,65.19h0c-18,18-47.19,18-65.19,0l-56.82-56.82c-8.09-8.09-21.2-8.09-29.29,0l-102.58,102.49-33.3,33.3.05.05-85.29,85.29c-27.86,27.86-37.05,67.34-27.53,102.85,4.67,17.43,13.85,33.91,27.53,47.59,13.67,13.68,30.16,22.86,47.59,27.53,8.64,2.31,17.53,3.52,26.42,3.62,11.94.14,23.33,5.03,31.78,13.48,9.41,9.41,13.61,20.96,13.61,32.3,0,23.9-18.69,46.82-46.72,46.46-49.99-.63-99.78-20.01-137.92-58.15-27.68-27.68-45.48-61.48-53.39-97.04-14.27-63.96,3.41-133.59,53.01-183.46Z"/>
            </g>
          </g>
        </g>
      </g>
    </pattern>
    <pattern id="Unnamed_Pattern-2" data-name="Unnamed Pattern" patternTransform="translate(-12812.17 -17475.5) rotate(-180) scale(1.12)" xlink:href="#Unnamed_Pattern"/>
    <pattern id="Unnamed_Pattern-3" data-name="Unnamed Pattern" patternTransform="translate(4857.85 157.48) scale(1.12)" xlink:href="#Unnamed_Pattern"/>
    <pattern id="Unnamed_Pattern-4" data-name="Unnamed Pattern" patternTransform="translate(4857.85 157.48) scale(1.12)" xlink:href="#Unnamed_Pattern"/>
    <pattern id="Unnamed_Pattern-5" data-name="Unnamed Pattern" patternTransform="translate(-12068.55 -17744.98) rotate(-180) scale(1.12)" xlink:href="#Unnamed_Pattern"/>
    <pattern id="Unnamed_Pattern-6" data-name="Unnamed Pattern" patternTransform="translate(-12068.55 -17744.98) rotate(-180) scale(1.12)" xlink:href="#Unnamed_Pattern"/>
  </defs>
  <g id="_02" data-name="02">
    <g id="_02-2" data-name="02">
      <g>
        <g>
          <path class="cls-8" d="M1409.08,347.25c9.05,3.83,20.35,5.78,33.62,5.78,22.13,0,38.89-5.83,51.24-17.83,12.07-11.74,18.21-31.02,18.24-57.31-1.1-23.72-7.18-42.6-18.05-56.11-10.52-13.06-27.34-19.41-51.42-19.41-13.25,0-24.55,1.94-33.61,5.78-8.88,3.76-16.19,8.99-21.74,15.55-5.64,6.67-9.81,14.59-12.4,23.55-2.69,9.36-4.06,19.61-4.06,30.46s1.37,21.11,4.06,30.46c2.58,8.95,6.75,16.87,12.4,23.54,5.56,6.57,12.87,11.8,21.74,15.55Z"/>
          <polygon class="cls-2" points="769.23 432.45 922.44 57.37 828.03 57.37 728.46 322.34 628.89 57.37 534.48 57.37 687.7 432.45 769.23 432.45"/>
          <rect class="cls-2" x="945.47" y="122.95" width="87.04" height="309.51"/>
          <path class="cls-2" d="M988.98,106.36c16.48,0,29.62-5.38,39.06-15.99,9.18-10.32,13.83-22.94,13.83-37.48s-4.65-26.57-13.83-36.9c-9.44-10.61-22.58-15.99-39.06-15.99s-29.6,5.23-39.22,15.55c-9.46,10.15-14.25,22.71-14.25,37.33s4.77,27.23,14.19,37.56c9.61,10.56,22.83,15.91,39.28,15.91Z"/>
          <path class="cls-2" d="M1123.08,389.13c13.42,14.24,29.81,25.63,48.72,33.85,18.91,8.23,40.52,12.4,64.24,12.4,7.98,0,13.72-.33,17.56-1.01,3.26-.58,7.39-1.25,12.4-2.02l7.12-1.09v-83.02l-10.05,2.03c-3.61.73-7.41,1.39-11.29,1.98-3.47.52-7.98.78-13.39.78-24.5,0-41.81-6.65-52.91-20.32-11.38-13.99-17.15-32.5-17.15-55.01v-62.45h90.75v-82.35h-90.75V52.69h-87.04v225.01c0,21.61,3.63,42.2,10.79,61.21,7.18,19.1,17.61,36,31.01,50.22Z"/>
          <path class="cls-2" d="M1325.9,389.08c13.21,14.24,29.3,25.64,47.82,33.87,18.54,8.25,38.99,12.43,60.78,12.43,23.19,0,43.46-4.68,60.25-13.92,11.5-6.32,21.7-14.32,30.49-23.86,2.95,10.26,6.66,20.29,11.11,29.97l2.25,4.88h88.73l-5.47-11.9c-6.35-13.8-11.08-27.7-14.06-41.32-3.03-13.81-5.14-27.15-6.28-39.65-1.14-12.56-1.72-24.22-1.72-34.66s-.2-20.01-.6-27.51c-.81-23.48-5.04-45.18-12.57-64.52-7.61-19.53-18.28-36.34-31.7-49.97-13.46-13.66-29.91-24.36-48.88-31.78-18.85-7.37-40.17-11.11-63.36-11.11-24.8,0-47.36,4.16-67.04,12.36-19.73,8.23-36.64,19.62-50.26,33.85-13.64,14.25-24.09,31.19-31.09,50.34-6.94,18.97-10.46,39.34-10.46,60.55s3.74,42.84,11.1,61.87c7.38,19.06,17.79,35.92,30.94,50.1ZM1370.88,277.7c0-10.85,1.37-21.1,4.06-30.46,2.58-8.96,6.76-16.88,12.4-23.55,5.55-6.56,12.87-11.79,21.74-15.55,9.06-3.83,20.37-5.78,33.61-5.78,24.08,0,40.91,6.35,51.42,19.41,10.88,13.51,16.95,32.39,18.05,56.11-.03,26.29-6.17,45.57-18.24,57.31-12.35,11.99-29.11,17.83-51.24,17.83-13.26,0-24.57-1.94-33.62-5.78-8.87-3.75-16.18-8.98-21.74-15.55-5.65-6.67-9.82-14.59-12.4-23.54-2.69-9.35-4.06-19.6-4.06-30.46Z"/>
          <rect class="cls-2" x="1652.69" y="5.85" width="87.04" height="426.6"/>
        </g>
        <g>
          <path class="cls-9" d="M2068.54,57.82c-17.82-2.17-36.23-3.27-54.73-3.27-29.8,0-56.74,5.04-80.06,14.98-23.37,9.96-43.29,23.7-59.19,40.83-15.89,17.11-28.16,37.52-36.49,60.67-8.27,23-12.46,47.92-12.46,74.06s4.19,51.06,12.46,74.06c8.32,23.15,20.6,43.56,36.49,60.67,15.92,17.14,35.83,30.88,59.19,40.83,23.31,9.94,50.25,14.97,80.06,14.97,18.5,0,36.91-1.1,54.73-3.27,17.89-2.18,34.46-5.52,49.25-9.92l5.99-1.78v-91.41l-12.02,5.8c-10.5,5.07-24.46,9.05-41.5,11.83-17.38,2.83-35.2,4.27-52.95,4.27-20.24,0-37.36-2.75-50.89-8.16-13.25-5.3-23.94-12.66-31.76-21.87-7.9-9.3-13.61-20.47-16.97-33.21-3.5-13.23-5.27-27.83-5.27-43.4s1.77-29.46,5.26-42.5c3.36-12.55,9.07-23.63,16.97-32.94,7.83-9.22,18.51-16.58,31.76-21.87,13.53-5.41,30.65-8.16,50.89-8.16,17.76,0,35.57,1.44,52.95,4.27,17.01,2.78,30.98,6.76,41.5,11.83l12.01,5.79v-91.4l-5.99-1.78c-14.78-4.39-31.35-7.73-49.25-9.92Z"/>
          <path class="cls-9" d="M2468.05,378.44c-3.02-13.76-5.13-27.07-6.26-39.54-1.14-12.52-1.71-24.15-1.71-34.56s-.2-19.99-.59-27.44c-.81-23.43-5.03-45.07-12.53-64.35-7.59-19.47-18.22-36.24-31.61-49.83-13.42-13.63-29.82-24.29-48.75-31.7-18.8-7.36-40.05-11.09-63.19-11.09-24.74,0-47.23,4.15-66.86,12.32-19.68,8.21-36.54,19.56-50.12,33.76-13.59,14.21-24.02,31.1-31,50.2-6.92,18.93-10.43,39.25-10.43,60.39s3.73,42.72,11.08,61.7c7.36,19.01,17.74,35.82,30.86,49.97,13.18,14.21,29.22,25.57,47.69,33.78,18.5,8.23,38.89,12.4,60.62,12.4,23.13,0,43.35-4.67,60.09-13.88,11.47-6.3,21.64-14.27,30.4-23.79,2.94,10.23,6.65,20.23,11.08,29.87l2.24,4.88h88.5l-5.46-11.88c-6.33-13.76-11.05-27.62-14.03-41.21ZM2372.67,277.38c-.03,26.22-6.15,45.45-18.19,57.15-12.31,11.96-29.02,17.77-51.09,17.77-13.22,0-24.49-1.94-33.52-5.76-8.84-3.74-16.14-8.95-21.68-15.5-5.63-6.65-9.79-14.55-12.36-23.48-2.69-9.32-4.05-19.53-4.05-30.37s1.36-21.05,4.05-30.37c2.58-8.93,6.73-16.83,12.36-23.48,5.53-6.54,12.83-11.75,21.68-15.5,9.04-3.82,20.32-5.76,33.52-5.76,24.01,0,40.78,6.33,51.28,19.35,10.84,13.47,16.9,32.29,18,55.95Z"/>
          <path class="cls-9" d="M2685.78,120.88c-4.64-.63-9.34-.95-13.97-.95-25.13,0-47.82,4.15-67.45,12.32-19.68,8.21-36.54,19.56-50.12,33.76-13.59,14.21-24.03,31.21-31.01,50.52-6.92,19.11-10.42,39.71-10.42,61.24v153.75h86.81v-154.34c0-10.49,1.27-20.45,3.79-29.61,2.35-8.57,6.42-16.05,12.1-22.23,5.73-6.23,13.44-11.32,22.93-15.11,9.66-3.86,22.07-5.82,36.88-5.82,3.42,0,6.69.26,9.72.76,3.42.57,7.03,1.24,10.83,2l10.01,1.99v-84.93l-6.88-1.25c-4.45-.81-8.9-1.51-13.21-2.1Z"/>
          <path class="cls-9" d="M2937.83,145.76c-7.46-5.91-15.68-10.97-24.58-15.12-15.27-7.1-33.06-10.71-52.87-10.71-21.71,0-42.1,4.17-60.62,12.4-18.5,8.23-34.54,19.59-47.69,33.78-13.12,14.14-23.5,30.95-30.86,49.96-7.35,18.98-11.08,39.74-11.08,61.7,0,20.33,3.3,40.12,9.81,58.8,6.58,18.92,16.7,35.83,30.09,50.24,13.36,14.4,30.11,26.06,49.79,34.67,19.66,8.6,42.59,12.96,68.16,12.96s47.17-4.15,66.6-12.33c19.48-8.2,36.15-19.57,49.56-33.8,13.4-14.22,23.62-31.13,30.41-50.23,6.71-18.91,10.11-39.4,10.11-60.89V6.08h-86.81v139.67ZM2919.64,219.85c12.07,11.73,18.19,31.03,18.19,57.34s-6.12,45.61-18.19,57.34c-12.31,11.96-29.03,17.77-51.09,17.77-13.22,0-24.5-1.94-33.52-5.76-8.84-3.74-16.14-8.95-21.68-15.5-5.63-6.65-9.79-14.55-12.36-23.48-2.69-9.32-4.05-19.53-4.05-30.37s1.36-21.05,4.05-30.37c2.58-8.93,6.73-16.83,12.36-23.48,5.53-6.54,12.83-11.75,21.69-15.5,9.03-3.82,20.31-5.76,33.51-5.76,22.07,0,38.78,5.81,51.09,17.77Z"/>
        </g>
        <g>
          <path class="cls-2" d="M297.57,169.8h0c-12.66,12.67-33.2,12.67-45.87,0l-22.91-22.91-34.69-34.68c-1.61-1.61-3.27-3.13-4.98-4.56-19.3-16.17-44.8-21.15-67.92-14.96-12.36,3.31-24.04,9.82-33.74,19.52-9.69,9.69-16.2,21.37-19.51,33.73-6.75,25.18-.25,53.16,19.51,72.91l20.68,20.68c12.77,12.77,12.77,33.47,0,46.24-6.38,6.39-14.75,9.58-23.12,9.58s-16.74-3.19-23.12-9.58l-20.68-20.68c-54.99-54.99-54.99-144.13,0-199.12,47.32-47.31,119.92-53.91,174.3-19.78,5.45,3.42,10.73,7.24,15.77,11.49l17.34,17.34,48.92,48.92c12.66,12.66,12.67,33.2,0,45.86Z"/>
          <path class="cls-2" d="M431.73,245.92l-.56.56-166.82,166.83h0c-25.54,25.54-66.94,25.54-92.48,0h0s0,0,0,0l-50.66-50.66c-12.76-12.76-12.76-33.45,0-46.21h0c12.76-12.76,33.45-12.76,46.21,0l40.28,40.28c5.73,5.73,15.03,5.74,20.76,0l72.71-72.65,23.61-23.61-.03-.03,60.46-60.46c19.75-19.75,26.26-47.73,19.52-72.9-3.31-12.36-9.82-24.04-19.52-33.73-9.69-9.7-21.38-16.2-33.73-19.52-6.13-1.64-12.42-2.5-18.73-2.57-8.47-.1-16.54-3.57-22.53-9.56-6.67-6.67-9.65-14.86-9.65-22.89,0-16.94,13.25-33.19,33.11-32.94,35.43.45,70.73,14.19,97.77,41.22,19.62,19.62,32.24,43.58,37.85,68.79,10.11,45.34-2.41,94.7-37.57,130.05Z"/>
        </g>
        <g>
          <path class="cls-9" d="M3157.06,105.3c-31.36,30.05-83.23,15.59-94.95-26.27-12.7-45.35,30.23-86.58,74.27-71.16,40.65,14.22,52.05,67.37,20.68,97.43ZM3113.73,9.27c-34.35,2.02-57.53,37.67-46.7,70.69,13.69,41.77,68.98,50.02,94.01,13.89,25.82-37.27-2.73-87.21-47.3-84.59Z"/>
          <path class="cls-9" d="M3097.58,35.08h24.62c9.29.7,17.49,3.22,19.22,13.66,1.39,8.39-.7,17.1-8.79,20.91-.81.38-1.65.58-2.44.91-.16.07-.29-.09-.24.27l14.19,20.2h-11.77l-13.19-18.76h-12.27v18.76h-9.35v-55.95ZM3106.92,63.65c5.59-.25,11.54.49,17.06-.39,5.19-.83,7.82-3.37,8.16-8.81.56-9.2-4.39-10.59-12.27-10.92-3.9.36-8.56-.45-12.37,0-.24.03-.43.02-.58.26v19.86Z"/>
        </g>
      </g>
    </g>
  </g>
  <g id="ICONS">
    <g id="ICON_01" data-name="ICON 01">
      <g class="cls-10">
        <g>
          <path class="cls-3" d="M-29.14,438.82l-.88.88-263.51,263.52h0c-40.34,40.34-105.74,40.34-146.07,0h0s-.01,0-.01,0l-80.02-80.02c-20.16-20.16-20.16-52.84,0-72.99h0c20.16-20.16,52.84-20.16,72.99,0l63.62,63.62c9.06,9.06,23.74,9.06,32.8,0l114.86-114.76,37.29-37.29-.05-.05,95.5-95.5c31.2-31.2,41.48-75.4,30.83-115.16-5.23-19.52-15.51-37.97-30.83-53.28-15.31-15.32-33.77-25.6-53.28-30.83-9.68-2.59-19.62-3.94-29.58-4.05-13.37-.15-26.13-5.63-35.59-15.09-10.53-10.53-15.24-23.47-15.24-36.16,0-26.77,20.92-52.43,52.31-52.03,55.97.7,111.72,22.41,154.43,65.12C1.42,155.74,21.35,193.59,30.21,233.4c15.97,71.62-3.81,149.58-59.35,205.42Z"/>
          <path class="cls-7" d="M-164.4,706.48l.88-.88L99.99,442.08h0c40.34-40.34,105.74-40.34,146.07,0h0s.01,0,.01,0l80.02,80.02c20.16,20.16,20.16,52.84,0,72.99h0c-20.16,20.16-52.84,20.16-72.99,0l-63.62-63.62c-9.06-9.06-23.74-9.06-32.8,0l-114.86,114.76-37.29,37.29.05.05-95.5,95.5c-31.2,31.2-41.48,75.4-30.83,115.16,5.23,19.52,15.51,37.97,30.83,53.28,15.31,15.32,33.77,25.6,53.28,30.83,9.68,2.59,19.62,3.94,29.58,4.05,13.37.15,26.13,5.63,35.59,15.09,10.53,10.53,15.24,23.47,15.24,36.16,0,26.77-20.92,52.43-52.31,52.03-55.97-.7-111.72-22.41-154.43-65.12-30.99-30.99-50.92-68.84-59.78-108.66-15.97-71.62,3.81-149.58,59.35-205.42Z"/>
          <g>
            <path class="cls-5" d="M502.56,49.11h0c-20,20.01-52.44,20.01-72.45,0l-36.18-36.18-54.79-54.78c-2.54-2.54-5.17-4.94-7.87-7.2-30.49-25.54-70.76-33.41-107.28-23.63-19.53,5.23-37.97,15.51-53.29,30.83-15.31,15.31-25.58,33.75-30.82,53.27-10.66,39.77-.39,83.97,30.82,115.17l32.66,32.66c20.17,20.17,20.17,52.87,0,73.04-10.08,10.09-23.3,15.13-36.52,15.13-13.22,0-26.44-5.04-36.52-15.13l-32.66-32.66C10.81,112.78,10.81-28.04,97.66-114.89c74.74-74.73,189.43-85.15,275.32-31.25,8.61,5.4,16.95,11.44,24.91,18.15l27.38,27.38,77.28,77.28c20,20,20.01,52.44,0,72.44Z"/>
            <path class="cls-6" d="M714.48,169.35l-.88.88-263.51,263.52h0c-40.34,40.34-105.74,40.34-146.07,0h0s-.01,0-.01,0l-80.02-80.02c-20.16-20.16-20.16-52.84,0-72.99h0c20.16-20.16,52.84-20.16,72.99,0l63.62,63.62c9.06,9.06,23.74,9.06,32.8,0l114.86-114.76,37.29-37.29-.05-.05,95.5-95.5c31.2-31.2,41.48-75.4,30.83-115.16-5.23-19.52-15.51-37.97-30.83-53.28-15.31-15.32-33.77-25.6-53.28-30.83-9.68-2.59-19.62-3.94-29.58-4.05-13.37-.15-26.13-5.63-35.59-15.09-10.53-10.53-15.24-23.47-15.24-36.16,0-26.77,20.92-52.43,52.31-52.03,55.97.7,111.72,22.41,154.43,65.12,30.99,30.99,50.92,68.84,59.78,108.66,15.97,71.62-3.81,149.58-59.35,205.42Z"/>
          </g>
          <g>
            <path class="cls-1" d="M791.14,557.24h0c20-20.01,52.44-20.01,72.45,0l36.18,36.18,54.79,54.78c2.54,2.54,5.17,4.94,7.87,7.2,30.49,25.54,70.76,33.41,107.28,23.63,19.53-5.23,37.97-15.51,53.29-30.83,15.31-15.31,25.58-33.75,30.82-53.27,10.66-39.77.39-83.97-30.82-115.17l-32.66-32.66c-20.17-20.17-20.17-52.87,0-73.04,10.08-10.09,23.3-15.13,36.52-15.13,13.22,0,26.44,5.04,36.52,15.13l32.66,32.66c86.85,86.85,86.85,227.67,0,314.52-74.74,74.73-189.43,85.15-275.32,31.25-8.61-5.4-16.95-11.44-24.91-18.15l-27.38-27.38-77.28-77.28c-20-20-20.01-52.44,0-72.44Z"/>
            <path class="cls-4" d="M579.22,437l.88-.88,263.51-263.52h0c40.34-40.34,105.74-40.34,146.07,0h0s.01,0,.01,0l80.02,80.02c20.16,20.16,20.16,52.84,0,72.99h0c-20.16,20.16-52.84,20.16-72.99,0l-63.62-63.62c-9.06-9.06-23.74-9.06-32.8,0l-114.86,114.76-37.29,37.29.05.05-95.5,95.5c-31.2,31.2-41.48,75.4-30.83,115.16,5.23,19.52,15.51,37.97,30.83,53.28,15.31,15.32,33.77,25.6,53.28,30.83,9.68,2.59,19.62,3.94,29.58,4.05,13.37.15,26.13,5.63,35.59,15.09,10.53,10.53,15.24,23.47,15.24,36.16,0,26.77-20.92,52.43-52.31,52.03-55.97-.7-111.72-22.41-154.43-65.12-30.99-30.99-50.92-68.84-59.78-108.66-15.97-71.62,3.81-149.58,59.35-205.42Z"/>
          </g>
        </g>
      </g>
    </g>
  </g>
</svg>